<?xml version="1.0" encoding="utf-8"?>
<!-- Generator: Adobe Illustrator 16.0.0, SVG Export Plug-In . SVG Version: 6.00 Build 0)  -->
<!DOCTYPE svg PUBLIC "-//W3C//DTD SVG 1.1//EN" "http://www.w3.org/Graphics/SVG/1.1/DTD/svg11.dtd">
<svg version="1.1" id="Layer_1" xmlns="http://www.w3.org/2000/svg" xmlns:xlink="http://www.w3.org/1999/xlink" x="0px" y="0px"
	 width="1485px" height="265px" viewBox="0 0 1485 265" enable-background="new 0 0 1485 265" xml:space="preserve">
<g>
	<path fill="none" d="M232.819,36.794c0.174,19.295-15.326,35.077-34.621,35.25c-0.273,0.002-0.547,0.001-0.82-0.002l0,0l0,0
		c19.293,0.28,35.16-15.133,35.439-34.426c0.005-0.3,0.005-0.6,0.001-0.899l0,0l0,0V36.794z"/>
	<polygon fill="none" points="232.819,36.756 232.819,36.756 232.819,36.794 	"/>
	<path fill="#EA5461" d="M203.356,1.431c-1.32,0-2.601,0.311-3.882,0.388c18.686,0.832,33.403,16.233,33.385,34.937l0,0l0,0l0,0
		c0.216,19.294-15.249,35.11-34.543,35.327c-0.299,0.003-0.599,0.003-0.899-0.001l0,0h-58.5v58.228h64.439
		c35.567,0,64.401-28.833,64.401-64.399c0-35.568-28.833-64.401-64.401-64.401V1.431z"/>
	<polygon opacity="0.5" fill="#23FF56" enable-background="new    " points="232.819,36.833 232.819,36.756 232.819,36.756 
		232.819,36.794 	"/>
	
		<linearGradient id="SVGID_1_" gradientUnits="userSpaceOnUse" x1="-144.3052" y1="298.877" x2="-111.1518" y2="322.1452" gradientTransform="matrix(2.4857 0 0 -2.4857 499.0831 814.7113)">
		<stop  offset="0" style="stop-color:#EBC9C6"/>
		<stop  offset="1" style="stop-color:#DC9C93"/>
	</linearGradient>
	<path fill="url(#SVGID_1_)" d="M197.417,72.042L197.417,72.042C197.222,52.749,212.705,36.95,232,36.755
		c0.273-0.003,0.546-0.002,0.819,0.001c0.018-18.704-14.697-34.105-33.384-34.937c-33.922,1.952-60.451,29.995-60.518,63.974l0,0
		v6.25H197.417z"/>
	<polygon opacity="0.5" fill="#23FF56" enable-background="new    " points="232.819,36.716 232.819,36.756 232.819,36.756 	"/>
	<polygon opacity="0.5" fill="#23FF56" enable-background="new    " points="232.819,36.716 232.819,36.756 232.819,36.756 	"/>
	<path fill="none" d="M42.297,36.368c19.294-0.173,35.076,15.327,35.25,34.621c0.002,0.274,0.001,0.547-0.002,0.821l0,0l0,0l0,0
		c0.28-19.293-15.133-35.161-34.426-35.44c-0.3-0.004-0.6-0.004-0.899-0.001l0,0H42.297z"/>
	<polygon fill="none" points="42.258,36.368 42.258,36.368 42.297,36.368 	"/>
	<path fill="#DA4DA6" d="M6.933,65.831c0,1.32,0.311,2.601,0.388,3.882c0.832-18.687,16.232-33.403,34.937-33.385l0,0
		c19.294-0.216,35.11,15.249,35.327,34.543c0.003,0.3,0.003,0.6-0.001,0.899l0,0v58.423h58.228V65.792l0,0
		c0-35.567-28.833-64.4-64.4-64.4c-35.568,0-64.401,28.833-64.401,64.4L6.933,65.831z"/>
	<polygon opacity="0.5" fill="#23FF56" enable-background="new    " points="42.335,36.368 42.258,36.368 42.258,36.368 
		42.297,36.368 	"/>
	
		<linearGradient id="SVGID_2_" gradientUnits="userSpaceOnUse" x1="-4210.6953" y1="-3505.7773" x2="-4177.541" y2="-3482.5085" gradientTransform="matrix(1.522061e-016 -2.4857 -2.4857 -1.522061e-016 -8637.0605 -10337.7441)">
		<stop  offset="0" style="stop-color:#F2CFF1"/>
		<stop  offset="1" style="stop-color:#D9A2CD"/>
	</linearGradient>
	<path fill="url(#SVGID_2_)" d="M77.544,71.81L77.544,71.81C58.25,72.003,42.452,56.521,42.256,37.227
		c-0.002-0.274-0.002-0.547,0.001-0.821C23.553,36.388,8.152,51.104,7.321,69.791c1.971,33.907,30.009,60.413,63.974,60.479h6.25
		V71.81z"/>
	<polygon opacity="0.5" fill="#23FF56" enable-background="new    " points="42.219,36.368 42.258,36.368 42.258,36.368 	"/>
	<polygon opacity="0.5" fill="#23FF56" enable-background="new    " points="42.219,36.368 42.258,36.368 42.258,36.368 	"/>
	<path fill="none" d="M41.87,226.852c-0.174-19.295,15.327-35.076,34.622-35.249c0.273-0.004,0.546-0.002,0.82,0.002l0,0l0,0
		c-19.293-0.28-35.16,15.134-35.439,34.426c-0.005,0.3-0.005,0.599-0.002,0.898l0,0l0,0V226.852z"/>
	<polygon fill="none" points="41.87,226.891 41.87,226.891 41.87,226.852 	"/>
	<path fill="#6AB917" d="M71.333,262.254c1.319,0,2.601-0.31,3.881-0.388c-18.686-0.83-33.402-16.232-33.384-34.938l0,0l0,0l0,0
		c-0.217-19.294,15.249-35.11,34.543-35.325c0.299-0.005,0.599-0.003,0.898,0.001l0,0h58.461v-58.229H71.294
		c-35.567,0-64.401,28.833-64.401,64.4c0,35.566,28.833,64.399,64.401,64.399L71.333,262.254z"/>
	<polygon opacity="0.5" fill="#23FF56" enable-background="new    " points="41.87,226.813 41.87,226.891 41.87,226.891 
		41.87,226.852 	"/>
	
		<linearGradient id="SVGID_3_" gradientUnits="userSpaceOnUse" x1="-8026.3145" y1="571.582" x2="-7993.1611" y2="594.8507" gradientTransform="matrix(-2.4857 0 0 2.4857 -19816.834 -1228.9183)">
		<stop  offset="0" style="stop-color:#DEEFC3"/>
		<stop  offset="1" style="stop-color:#A3DC8E"/>
	</linearGradient>
	<path fill="url(#SVGID_3_)" d="M77.311,191.643L77.311,191.643c-0.324,9.315-3.989,18.202-10.326,25.038
		c-6.873,6.312-15.789,9.936-25.116,10.21c-0.018,18.705,14.698,34.105,33.384,34.936c33.908-1.97,60.414-30.008,60.48-63.972l0,0
		v-6.25H77.311V191.643z"/>
	<polygon opacity="0.5" fill="#23FF56" enable-background="new    " points="41.87,226.968 41.87,226.891 41.87,226.891 	"/>
	<polygon opacity="0.5" fill="#23FF56" enable-background="new    " points="41.87,226.968 41.87,226.891 41.87,226.891 	"/>
	<path fill="none" d="M232.392,227.317c-19.294,0.174-35.076-15.327-35.249-34.621c-0.003-0.274-0.001-0.547,0.002-0.819l0,0l0,0
		l0,0c-0.28,19.291,15.133,35.158,34.426,35.438c0.299,0.005,0.6,0.005,0.898,0.002l0,0H232.392z"/>
	<polygon fill="none" points="232.432,227.317 232.432,227.317 232.392,227.317 	"/>
	<path fill="#228BF4" d="M267.757,197.854c0-1.32-0.312-2.602-0.389-3.883c-0.831,18.688-16.232,33.404-34.936,33.384l0,0
		c-19.294,0.217-35.11-15.247-35.327-34.543c-0.003-0.299-0.003-0.598,0.001-0.898l0,0v-58.461h-58.189v64.439l0,0
		c0,35.568,28.833,64.4,64.4,64.4s64.4-28.832,64.4-64.4L267.757,197.854z"/>
	<polygon opacity="0.5" fill="#23FF56" enable-background="new    " points="232.354,227.317 232.432,227.317 232.432,227.317 
		232.392,227.317 	"/>
	
		<linearGradient id="SVGID_4_" gradientUnits="userSpaceOnUse" x1="-3959.9448" y1="4398.2373" x2="-3926.7903" y2="4421.4902" gradientTransform="matrix(1.522061e-016 2.4857 2.4857 -1.522061e-016 -10735.3242 9978.1729)">
		<stop  offset="0" style="stop-color:#C7DCFC"/>
		<stop  offset="1" style="stop-color:#95BEFD"/>
	</linearGradient>
	<path fill="url(#SVGID_4_)" d="M197.146,191.877L197.146,191.877c19.293-0.195,35.092,15.287,35.288,34.582
		c0.001,0.272,0.001,0.546-0.001,0.82c18.704,0.018,34.105-14.698,34.936-33.386c-1.97-33.906-30.008-60.414-63.973-60.478h-6.249
		v58.42V191.877z"/>
	<polygon opacity="0.5" fill="#23FF56" enable-background="new    " points="232.509,227.317 232.432,227.317 232.432,227.317 	"/>
	<polygon opacity="0.5" fill="#23FF56" enable-background="new    " points="232.509,227.317 232.432,227.317 232.432,227.317 	"/>
	<path fill="#555F77" d="M532.5,186.596c0,20.302,0,39.208,0,58.229c0.064,2.38-0.119,4.76-0.543,7.104
		c-1.293,6.712-7.139,11.583-13.976,11.646c-7.048,0.177-13.203-4.735-14.595-11.646c-0.369-1.958-0.525-3.948-0.467-5.94
		c0-40.448,0-80.937,0-121.386c-1.679-43.96,32.597-80.96,76.557-82.639c43.96-1.68,80.96,32.596,82.64,76.556
		c0.088,2.325,0.076,4.652-0.038,6.976c-0.778,31.559-15.528,55.511-43.439,69.875c-27.91,14.36-55.783,11.644-82.025-5.785
		L532.5,186.596z M584.207,66.025c-17.157,0-29.579,6.094-38.353,16.731c-22.321,27.173-15.527,72.164,13.974,91.302
		c20.212,13.971,47.921,8.91,61.891-11.301c0.247-0.358,0.488-0.721,0.725-1.083c17.985-27.736,12.159-64.571-13.509-85.401
		C601.899,70.467,593.287,66.898,584.207,66.025z"/>
	<path fill="#555F77" d="M706.641,187.915c0,1.904,0,3.884,0,6.097c0,18.322,0,36.682,0,55.006
		c0.093,6.639-4.391,12.473-10.83,14.09c-6.192,1.69-12.744-1.004-15.956-6.559c-1.411-2.601-2.17-5.504-2.212-8.463
		c0-42.701-0.466-85.4,0-128.103c0.504-40.488,33.928-73.755,75.93-76.396c38.354-2.523,75.348,26.94,81.869,65.254
		c7.763,45.147-20.187,85.868-64.944,94.02c-20.313,3.887-41.332-0.653-58.228-12.578c-1.475-1.007-2.989-1.941-4.503-2.871
		C707.806,187.488,707.573,187.645,706.641,187.915z M807.182,126.893c0.373-18.617-7.497-36.448-21.506-48.717
		c-22.94-19.992-54.579-14.829-70.223,11.219c-15.025,26.65-9.505,60.166,13.277,80.588c22.903,19.41,53.763,14.673,69.562-10.714
		c6.027-9.708,9.128-20.95,8.93-32.376H807.182z"/>
	<path fill="#555F77" d="M1127.747,186.868c0,3.028,0,5.124,0,7.26c0,17.934,0,35.906,0,53.841
		c0.537,8.021-5.531,14.959-13.554,15.495c-0.296,0.021-0.591,0.031-0.885,0.033c-7.954,0.151-14.525-6.171-14.679-14.123
		c-0.009-0.468,0.005-0.938,0.042-1.405c0-42.468-0.505-84.937,0-127.403c0.66-41.613,34.239-74.764,76.551-76.978
		c40.864-1.415,76.132,28.411,81.521,68.942c4.27,34.122-8.152,61.567-37.268,79.54c-29.113,17.973-58.654,16.187-87.225-2.523
		C1131.202,188.849,1129.882,188.11,1127.747,186.868z M1228.365,127.204c-0.465-20.342-7.413-37.81-23.718-50.465
		c-22.514-17.701-51.939-12.461-67.351,11.646c-16.214,27.26-10.41,62.24,13.741,82.801c22.825,18.166,52.795,13.158,68.243-11.646
		c6.079-9.706,9.219-20.963,9.046-32.413L1228.365,127.204z"/>
	<path fill="#555F77" d="M455.756,186.868c-10.585,8.234-22.971,13.849-36.14,16.382c-44.177,8.5-88.779-25.038-92.855-69.874
		c-3.881-42.234,22.283-79.113,62.11-87.575c50.116-10.676,95.961,26.318,96.815,78.297c0.349,20.729,0,41.458,0,62.109
		c0,11.025-5.164,17.624-14.014,18.051S457.23,198.513,455.756,186.868z M456.183,126.117c-0.97-19.991-8.113-37.771-25.193-50.464
		c-19.188-15.138-47.015-11.854-62.152,7.333c-0.482,0.61-0.946,1.232-1.394,1.866c-20.924,27.444-12.811,71.854,16.498,90.061
		c19.028,12.542,44.483,8.5,58.694-9.318c9.051-11.216,13.863-25.262,13.585-39.672L456.183,126.117z"/>
	<path fill="#555F77" d="M1448.119,186.868c-10.086,7.826-21.82,13.256-34.315,15.877c-43.225,8.527-85.178-19.602-93.703-62.827
		c-1.215-6.151-1.698-12.426-1.441-18.692c1.668-42.158,32.84-74.183,75.424-77.638c38.508-3.028,74.61,25.349,82.374,65.138
		c1.119,6.682,1.626,13.452,1.515,20.224c0.18,19.719,0.18,39.455,0,59.199c0,12.463-11.646,19.76-21.855,14.014
		C1450.37,199.059,1448.702,193.507,1448.119,186.868z M1448.429,127.243c0.137-16.931-6.275-33.259-17.896-45.573
		c-24.105-24.845-60.75-19.138-76.123,11.646c-12.364,26.057-6.144,57.142,15.295,76.434c22.631,19.409,53.726,14.945,69.603-10.364
		c6.012-9.666,9.163-20.838,9.084-32.22L1448.429,127.243z"/>
	<path fill="#555F77" d="M1081.243,124.137c-0.451,44.012-36.495,79.325-80.507,78.874c-44.013-0.45-79.326-36.495-78.875-80.506
		c0.449-43.859,36.254-79.11,80.113-78.877c43.992,0.212,79.483,36.046,79.271,80.039
		C1081.246,123.823,1081.244,123.98,1081.243,124.137z M997.899,65.909c-14.682,0.549-28.153,8.285-36.025,20.69
		c-18.282,26.474-11.646,66.691,14.441,85.752c19.348,15.246,47.393,11.922,62.64-7.425c0.979-1.242,1.891-2.535,2.73-3.873
		c17.613-27.718,11.672-64.231-13.818-84.936c-8.556-6.67-19.12-10.243-29.968-10.131V65.909z"/>
	<path fill="#555F77" d="M864.828,70.645c-5.007,0-9.162,0-13.314,0c-6.734,0.516-12.612-4.523-13.128-11.257
		c-0.017-0.207-0.027-0.415-0.031-0.622c0.087-6.667,5.562-12,12.229-11.914c0.258,0.004,0.518,0.015,0.775,0.035
		c4.152,0,8.346,0,13.702,0c0-3.882,0-7.259,0-10.713c0-5.784,0-11.646,0-17.352c-0.414-8.029,5.758-14.875,13.786-15.29
		c8.029-0.415,14.875,5.757,15.29,13.786c0.025,0.5,0.025,1.002,0,1.504c0,8.772,0,17.546,0,26.28c0,0.35,0.309,0.7,0.814,1.747
		c3.883,0,8.307,0,12.617,0c6.64-0.282,12.25,4.873,12.532,11.513c0.002,0.044,0.004,0.088,0.005,0.133
		c-0.106,6.731-5.649,12.101-12.381,11.995c0,0-0.001,0-0.003,0c-4.347,0.193-8.694,0-13.43,0c0,1.94-0.467,3.455-0.467,4.968
		c0,28.312-0.104,56.611-0.311,84.896c0,10.093,2.835,13.238,12.654,14.285c8.104,0.622,14.172,7.696,13.549,15.801
		c-0.622,8.104-7.694,14.169-15.8,13.547c-22.04-0.319-39.689-18.368-39.518-40.41c0-28.3,0.233-56.598,0.35-84.897
		C864.828,76.273,864.828,73.906,864.828,70.645z"/>
	<path fill="#555F77" d="M1273.396,125.263c0-20.923,0-41.847,0-62.77c-0.104-7.996,6.294-14.563,14.289-14.667
		c5.904-0.078,11.263,3.438,13.545,8.883c0.83,2.234,1.239,4.604,1.202,6.987c0,41.64,0,83.292,0,124.958
		c0.415,8.03-5.757,14.874-13.786,15.289c-8.028,0.417-14.874-5.755-15.289-13.784c-0.026-0.501-0.026-1.004,0-1.505
		C1273.319,167.458,1273.396,146.38,1273.396,125.263z"/>
	<path fill="#555F77" d="M1302.471,19.326c0.106,8.039-6.325,14.642-14.363,14.748c-8.039,0.105-14.643-6.325-14.748-14.365
		c-0.006-0.412,0.007-0.825,0.036-1.237c-0.105-8.039,6.325-14.641,14.364-14.748c8.038-0.106,14.643,6.325,14.748,14.365
		C1302.514,18.502,1302.501,18.915,1302.471,19.326z"/>
</g>
</svg>
