<?xml version="1.0" encoding="UTF-8"?>
<svg width="317px" height="124px" viewBox="0 0 317 124" version="1.1" xmlns="http://www.w3.org/2000/svg" xmlns:xlink="http://www.w3.org/1999/xlink">
    <title>Group 2 Copy 2</title>
    <defs>
        <polygon id="path-1" points="0.0106191 0.01097307 77.7563786 0.01097307 77.7563786 76.4469009 0.0106191 76.4469009"></polygon>
    </defs>
    <g id="New-Logo-Concepts" stroke="none" stroke-width="1" fill="none" fill-rule="evenodd">
        <g id="Final---Outlined" transform="translate(-898.000000, -485.000000)">
            <g id="Group-4" transform="translate(735.000000, 393.000000)">
                <g id="Group-2-Copy-2" transform="translate(165.000000, 92.000000)">
                    <path d="M174.278,90.014 C178.646,90.014 182.572,89.273 186.056,87.791 C189.54,86.309 192.53,84.268 195.026,81.668 C197.522,79.068 199.446,76.052 200.798,72.62 C202.15,69.188 202.826,65.522 202.826,61.622 C202.826,57.722 202.15,54.069 200.798,50.663 C199.446,47.257 197.522,44.254 195.026,41.654 C192.53,39.054 189.54,37.026 186.056,35.57 C182.572,34.114 178.672,33.386 174.356,33.386 C169.988,33.386 166.049,34.114 162.539,35.57 C159.029,37.026 156.039,39.054 153.569,41.654 C151.099,44.254 149.188,47.257 147.836,50.663 C146.484,54.069 145.808,57.722 145.808,61.622 C145.808,65.522 146.484,69.188 147.836,72.62 C149.188,76.052 151.099,79.068 153.569,81.668 C156.039,84.268 159.029,86.309 162.539,87.791 C166.049,89.273 169.962,90.014 174.278,90.014 Z M174.278,81.746 C171.574,81.746 169.052,81.252 166.712,80.264 C164.372,79.276 162.331,77.859 160.589,76.013 C158.847,74.167 157.495,72.035 156.533,69.617 C155.571,67.199 155.09,64.534 155.09,61.622 C155.09,58.762 155.571,56.11 156.533,53.666 C157.495,51.222 158.847,49.103 160.589,47.309 C162.331,45.515 164.372,44.111 166.712,43.097 C169.052,42.083 171.574,41.576 174.278,41.576 C177.034,41.576 179.582,42.083 181.922,43.097 C184.262,44.111 186.303,45.515 188.045,47.309 C189.787,49.103 191.126,51.222 192.062,53.666 C192.998,56.11 193.466,58.762 193.466,61.622 C193.466,64.534 192.998,67.199 192.062,69.617 C191.126,72.035 189.787,74.167 188.045,76.013 C186.303,77.859 184.262,79.276 181.922,80.264 C179.582,81.252 177.034,81.746 174.278,81.746 Z M230.275109,89.936 C233.499109,89.936 236.385109,89.429 238.933109,88.415 C241.481109,87.401 243.652109,85.932 245.446109,84.008 C247.240109,82.084 248.618109,79.809 249.580109,77.183 C250.542109,74.557 251.023109,71.658 251.023109,68.486 C251.023109,64.43 250.204109,60.894 248.566109,57.878 C246.928109,54.862 244.666109,52.509 241.780109,50.819 C238.894109,49.129 235.553109,48.284 231.757109,48.284 C229.885109,48.284 228.117109,48.57 226.453109,49.142 C224.789109,49.714 223.281109,50.52 221.929109,51.56 C220.577109,52.6 219.485109,53.822 218.653109,55.226 L218.653109,55.226 L218.575109,55.226 L218.575109,32.06 L209.605109,32.06 L209.605109,68.642 C209.605109,73.01 210.476109,76.793 212.218109,79.991 C213.960109,83.189 216.391109,85.646 219.511109,87.362 C222.631109,89.078 226.219109,89.936 230.275109,89.936 Z M230.275109,82.292 C228.039109,82.292 226.037109,81.733 224.269109,80.615 C222.501109,79.497 221.123109,77.95 220.135109,75.974 C219.147109,73.998 218.653109,71.71 218.653109,69.11 C218.653109,66.51 219.147109,64.222 220.135109,62.246 C221.123109,60.27 222.501109,58.723 224.269109,57.605 C226.037109,56.487 228.065109,55.928 230.353109,55.928 C232.641109,55.928 234.656109,56.5 236.398109,57.644 C238.140109,58.788 239.505109,60.348 240.493109,62.324 C241.481109,64.3 241.975109,66.562 241.975109,69.11 C241.975109,71.71 241.481109,73.998 240.493109,75.974 C239.505109,77.95 238.127109,79.497 236.359109,80.615 C234.591109,81.733 232.563109,82.292 230.275109,82.292 Z M262.88779,43.682 C264.49979,43.682 265.86479,43.11 266.98279,41.966 C268.10079,40.822 268.65979,39.47 268.65979,37.91 C268.65979,36.35 268.10079,34.998 266.98279,33.854 C265.86479,32.71 264.49979,32.138 262.88779,32.138 C261.32779,32.138 259.97579,32.71 258.83179,33.854 C257.68779,34.998 257.11579,36.35 257.11579,37.91 C257.11579,39.47 257.68779,40.822 258.83179,41.966 C259.97579,43.11 261.32779,43.682 262.88779,43.682 Z M267.41179,89 L267.41179,49.22 L258.44179,49.22 L258.44179,89 L267.41179,89 Z M307.871188,89 L307.871188,81.356 L297.185188,81.356 C294.949188,81.356 292.921188,81.005 291.101188,80.303 C289.281188,79.601 287.773188,78.561 286.577188,77.183 C285.381188,75.805 284.627188,74.076 284.315188,71.996 L284.315188,71.996 L312.551188,71.996 C312.655188,71.632 312.733188,71.112 312.785188,70.436 C312.837188,69.76 312.863188,69.162 312.863188,68.642 C312.863188,64.846 312.200188,61.414 310.874188,58.346 C309.548188,55.278 307.507188,52.834 304.751188,51.014 C301.995188,49.194 298.485188,48.284 294.221188,48.284 C290.425188,48.284 287.071188,49.168 284.159188,50.936 C281.247188,52.704 278.959188,55.148 277.295188,58.268 C275.631188,61.388 274.799188,65.002 274.799188,69.11 C274.799188,73.01 275.735188,76.455 277.607188,79.445 C279.479188,82.435 282.092188,84.775 285.446188,86.465 C288.800188,88.155 292.713188,89 297.185188,89 L297.185188,89 L307.871188,89 Z M303.893188,65.912 L284.237188,65.912 C284.393188,64.664 284.692188,63.429 285.134188,62.207 C285.576188,60.985 286.213188,59.893 287.045188,58.931 C287.877188,57.969 288.891188,57.189 290.087188,56.591 C291.283188,55.993 292.661188,55.694 294.221188,55.694 C295.573188,55.694 296.769188,55.889 297.809188,56.279 C298.849188,56.669 299.746188,57.189 300.500188,57.839 C301.254188,58.489 301.878188,59.256 302.372188,60.14 C302.866188,61.024 303.230188,61.96 303.464188,62.948 C303.698188,63.936 303.841188,64.924 303.893188,65.912 L303.893188,65.912 Z" id="Obie" fill="#2B2D36" fill-rule="nonzero"></path>
                    <g id="Group-10" transform="translate(0.000000, 2.000000)">
                        <g id="Group-3" fill="#FFFFFF" stroke="#2B2D36" stroke-width="4">
                            <g id="Group">
                                <circle id="Oval" cx="60" cy="60" r="60"></circle>
                            </g>
                        </g>
                        <g id="Obie---Solo-(Logo)" transform="translate(21.000000, 21.000000)">
                            <g id="Group-6">
                                <mask id="mask-2" fill="white">
                                    <use xlink:href="#path-1"></use>
                                </mask>
                                <g id="Clip-2"></g>
                                <path d="M19.0414622,55.5925814 C19.0414622,55.5925814 23.6398865,58.1604567 38.6558248,58.1956767 C38.6558248,58.1956767 49.1322749,58.7414985 59.8265935,55.7237273 C59.8265935,55.7237273 58.062407,58.7190214 49.7662352,60.1387951 C47.1027879,60.5943545 35.550269,61.2263679 30.7453032,60.5035611 C26.7334073,59.9000423 22.193742,58.5427443 19.0414622,55.5925814" id="Fill-1" fill="#2E3432" mask="url(#mask-2)"></path>
                                <path d="M62.888257,23.1745929 C62.6033112,22.4526711 60.9465546,15.2695579 58.2526659,11.9516201 C58.0923175,11.7539278 60.8621328,8.76128845 61.0279677,8.51014674 C62.546145,6.20827983 53.8517569,2.33549406 53.6880458,4.35542386 C53.6570734,4.34409683 53.5430951,5.65891839 53.3592077,6.97391694 C53.1719575,8.31192354 52.9123205,9.64975315 52.5933936,9.59046318 C50.8504453,9.26604968 49.4607591,8.51191659 46.0968052,8.09830265 C45.8304427,8.06556042 46.0732662,8.09458596 46.3093641,8.12378849 C46.5373208,8.1519291 46.758906,8.17989273 46.5090032,8.15228307 C46.3323722,8.13281472 45.1853324,2.28912399 44.6133169,3.05316823 C43.998294,3.8747326 43.479374,5.88457426 43.101865,5.68281136 C41.5698828,4.86425574 41.7535933,-0.909879885 41.1815777,0.137517345 C40.6568172,1.09907685 38.9814772,5.04230265 37.6924954,5.50582636 C37.3233047,5.63856511 37.2599441,4.17861585 37.5050683,3.52961185 C37.8236413,2.68592436 34.1653614,6.26084437 33.6650248,6.70436878 C32.9995612,7.29443677 31.1337853,8.07564857 31.0465317,8.13476155 C28.4282156,8.45758219 27.7579734,8.83279039 25.5407053,9.60586087 C25.1854965,9.68603508 24.9578937,4.88584791 23.6227189,4.30356726 C22.2923227,3.72341043 16.6070335,6.48012879 16.3741212,8.74429789 C16.2265158,10.1803542 20.3686727,13.013707 19.8568321,13.7363368 C18.1673333,16.1213867 15.9258182,20.9819257 14.7913444,24.1779208 C12.7215048,30.0095766 8.91561938,33.9920931 7.50044731,35.302667 C7.50044731,35.302667 4.71824311,37.9036386 3.08042393,41.5228048 C-0.97801911,50.4906348 0.19326762,48.9487414 1.31924619,47.4066711 C1.83480349,46.700678 2.34098059,45.9945078 2.33106944,46.2976831 C2.33053848,46.3143197 2.09373255,47.5270209 1.77161985,49.1890871 C1.0950062,52.6778154 0.04141449,58.1473598 0.00283176,58.6898189 C-0.031680315,59.1768816 0.248663925,58.0932024 0.81306909,57.0095233 C1.58153796,55.5339993 2.87671419,54.0582984 4.62037041,56.5479464 C4.94460693,57.0107622 6.07819585,58.7517636 6.21288144,58.9728179 C9.81222539,64.1239663 24.4862287,72.6571211 34.2481904,75.8343558 C35.149752,76.1277969 37.4018861,76.4534493 39.6019866,76.4545164 C41.6369601,76.4555732 43.6315811,76.1263811 44.5589825,75.9003712 C50.9661935,74.3391865 59.1756427,70.5085232 65.9384165,65.815058 C68.8928271,63.7646868 71.2371704,62.593577 72.7656129,58.9972418 C72.941536,58.5832739 73.106663,58.1374487 73.260286,57.6542796 C73.3470086,57.3822537 73.4301916,57.0981928 73.5094809,56.8017429 C73.7701798,55.8300952 74.3349389,56.8889965 74.8016483,57.9480747 C75.1699541,58.7837979 75.4770231,59.6196981 75.525163,59.4570488 C76.0509855,57.6808274 76.1771758,54.0591833 75.3879996,49.9170264 C75.2741983,49.3189941 75.9463873,49.7393334 76.6035326,50.1594958 C77.9307431,51.0084929 79.195478,51.8574899 73.790887,44.3120884 C73.1445378,43.4098189 74.1749445,44.0436022 75.2373854,44.6775624 C77.4178406,45.9782252 79.7335123,47.279065 67.9696734,35.30249 C67.9696734,35.30249 64.5258992,30.7279587 62.888257,23.1745929 Z" id="Fill-3" fill="#804A2C" mask="url(#mask-2)"></path>
                                <path d="M39.2113807,76.45752 C38.0645179,76.45752 36.9390703,76.3785847 35.7364572,76.1557606 C36.812526,76.3246043 38.217256,76.4538033 39.6016326,76.4545113 C39.4711947,76.4564581 39.3411107,76.45752 39.2113807,76.45752 M33.8425407,75.7002012 C33.1487595,75.4959605 32.4192274,75.241987 31.6390775,74.9285466 C31.6390775,74.9285466 31.3240442,74.8005864 30.760524,74.5593559 C31.8240268,74.9858897 32.8563803,75.3690622 33.8425407,75.7002012 M46.1888374,75.465873 C47.125088,75.1957939 48.0917801,74.8832384 49.0791794,74.5326311 C48.128416,74.9064235 47.148981,75.2143774 46.1888374,75.465873 M54.7349121,72.20988 C55.444091,71.8813958 56.1552167,71.5382219 56.8656345,71.1814202 C56.163358,71.5470712 55.4504624,71.8875903 54.7349121,72.20988 M63.2590406,67.5834921 C64.1713983,67.0104147 65.0671194,66.4198157 65.9384165,65.815058 C66.8362614,65.1918938 67.6776481,64.6501427 68.4570901,64.0967106 C67.0045742,65.1989732 65.2164947,66.3897283 63.2590406,67.5834921 M15.7488332,66.8121915 C13.6319157,65.4876357 11.5737571,64.056889 9.77328869,62.5645515 C11.4427882,63.9354773 13.4929824,65.3833916 15.7488332,66.8121915 M70.7975397,62.1033286 C71.2569928,61.6035229 71.6808718,61.0440733 72.0666991,60.3904677 C71.8833427,60.8768225 71.44265,61.4568024 70.7975397,62.1033286 M7.49566872,60.4950659 C7.38788486,60.3862201 7.28133989,60.2766664 7.17709572,60.1674666 C6.8647172,59.8403984 6.58295708,59.4873133 6.32225817,59.1257329 C6.64065419,59.561116 7.0346228,60.0189762 7.49566872,60.4950659 M6.20827983,58.9652075 C5.88422029,58.5025687 5.59237203,58.0303728 5.31238176,57.5836626 C5.70581941,58.1824029 6.11872542,58.8199028 6.20827983,58.9652075 M0.03610494,58.7908773 C0.034866045,58.7908773 0.03362715,58.7905233 0.03256524,58.7898154 C0.057874095,58.7505247 0.097518735,58.6549528 0.15149916,58.5192053 C0.092209185,58.7052166 0.054688365,58.7908773 0.03610494,58.7908773 M0.103890195,58.0188687 C0.2725569,56.8990846 0.67820652,54.7188064 1.09766097,52.5385282 C1.66861458,49.5715517 2.26576197,46.6047521 2.32770672,46.3100721 C2.32806069,46.3017538 2.32770672,46.2913117 2.32575988,46.2806926 C2.32186621,46.2582155 2.31107013,46.2357384 2.28381444,46.2357384 C2.27372629,46.2357384 2.26116036,46.2389241 2.24576266,46.2463575 C2.26611594,46.2327296 2.28328348,46.2254733 2.29673434,46.2254733 C2.32045033,46.2254733 2.3326623,46.2481273 2.33106943,46.2976831 C2.33106943,46.298922 2.32965355,46.3065324 2.32717576,46.3205142 C2.32717576,46.3203372 2.32717576,46.3201602 2.32717576,46.3199832 C2.32717576,46.3203372 2.32717576,46.3208682 2.32699878,46.3212221 C2.29461052,46.4985611 2.06966259,47.6514414 1.77161985,49.1890871 C1.21022343,52.0842077 0.38901303,56.3431747 0.103890195,58.0188687 M74.4216615,57.1518192 C74.2712243,56.9036862 74.1170704,56.6874106 73.967341,56.5376813 C73.8949542,56.4654714 73.8330094,56.4360919 73.7797369,56.4360919 C73.6416886,56.4360919 73.5618684,56.6328992 73.5117817,56.7930706 C73.5839915,56.529363 73.6790325,56.4185704 73.7885862,56.4185704 C73.9719427,56.4185704 74.1961827,56.7288251 74.4216615,57.1518192 M3.67580146,55.5311676 C3.40820014,55.3456873 3.12095349,55.2327709 2.80114159,55.2163113 C2.78255817,55.2154263 2.76432871,55.2148954 2.74592227,55.2148954 C2.6937117,55.2148954 2.64220906,55.2186121 2.5910604,55.2260454 C2.65619088,55.2148954 2.72238327,55.2092319 2.78963757,55.2092319 C3.06608814,55.2092319 3.36165309,55.3060427 3.67580146,55.5311676 M0.270964035,48.5753031 C0.239460705,48.5613213 0.23397417,48.5191989 0.2406996,48.4915892 C0.244062315,48.4783153 0.247248045,48.4650414 0.250787745,48.4514136 C0.245832165,48.5163671 0.25308855,48.5565427 0.270964035,48.5753031 M0.59360769,48.3492933 C0.793777725,48.1227525 1.05766236,47.7648888 1.31924619,47.4066711 C1.45694052,47.2181821 1.59392691,47.0296931 1.72064817,46.8603185 C1.7202942,46.8606724 1.72011721,46.8608494 1.71994023,46.8612034 C1.29057462,47.479589 0.869173335,48.0402774 0.59360769,48.3492933 M0.785636415,46.8143024 C1.54437111,44.7800368 2.72946267,42.2302139 3.01175374,41.6440395 C3.07582231,41.5109468 3.14236867,41.3766152 3.21103885,41.2415757 C3.16661562,41.3346698 3.12325429,41.4282948 3.08042392,41.5228048 C1.94418022,44.033514 1.21783378,45.7205351 0.785636415,46.8143024 M6.20350124,36.6966009 C6.54154259,36.2838718 6.89834435,35.8725587 7.27372953,35.4653162 C7.27372953,35.4653162 11.2578389,32.1250783 14.0432288,26.0513071 C11.905604,30.8608745 8.75845669,34.1377517 7.50044731,35.302667 C7.50044731,35.302667 6.95427161,35.8132687 6.20350124,36.6966009 M15.3095565,22.7969069 C15.3276089,22.7409796 15.3453074,22.6854063 15.3630059,22.6291251 C15.9334286,21.1527162 16.5549999,19.7833833 17.1510854,18.5795313 C16.4723479,19.9962963 15.8302463,21.4725281 15.3095565,22.7969069 M19.8555932,13.7381067 C19.8559472,13.7375757 19.8563011,13.7368678 19.8566551,13.7363368 C19.8755925,13.7051874 19.8888664,13.6729762 19.8964767,13.639526 C19.8904592,13.6751 19.8773623,13.7073113 19.8568321,13.7363368 C19.8564781,13.7368678 19.8559472,13.7375757 19.8555932,13.7381067 M19.7444466,13.179542 C19.4467578,12.7441589 18.7382869,12.0790493 17.663103,10.8914799 C18.454049,11.7445476 19.3818043,12.5990312 19.7444466,13.179542 M25.5318561,9.60692279 C25.5176973,9.60692279 25.5037155,9.59913544 25.4897337,9.58409172 C26.1130748,9.37701927 26.6031463,9.21366211 27.0061412,9.08180829 C26.5804922,9.23401539 26.1120129,9.40675275 25.5407054,9.60586087 C25.5378736,9.60656881 25.5348648,9.60692279 25.5318561,9.60692279 M25.473982,9.56409241 C25.3768172,9.42126552 25.2833692,8.93473376 25.1660281,8.31015369 C25.3254916,8.96765296 25.4465493,9.45418473 25.473982,9.56409241 M16.4399597,9.18676039 C16.3620863,8.98234272 16.365449,8.86305483 16.3711125,8.78642032 C16.365449,8.91066379 16.3904039,9.04499541 16.4399597,9.18676039 M16.3741212,8.74429789 C16.3804927,8.62766478 16.4107571,8.49492603 16.4665074,8.34962134 C16.4188985,8.48236009 16.3875721,8.61421392 16.3741212,8.74429789 M24.5552529,5.71077499 C24.4256998,5.33255805 24.2761475,4.99522464 24.1007554,4.74001227 C24.4092402,5.13822852 24.5341917,5.61909676 24.5552529,5.71077499 M22.2017063,4.36834377 C22.5491279,4.26728533 22.8678779,4.20498662 23.1268069,4.20498662 C23.255475,4.20498662 23.3692764,4.22038431 23.4644943,4.25418844 C23.3729931,4.23454311 23.2689259,4.2251629 23.1540626,4.2251629 C22.8878772,4.2251629 22.5632867,4.27578061 22.2017063,4.36834377" id="Fill-4" fill="#8E847D" mask="url(#mask-2)"></path>
                                <path d="M35.7364572,76.1557606 C35.1290447,76.0433751 34.5019869,75.8943537 33.8425407,75.7002012 C32.8563803,75.3690623 31.8240268,74.9858897 30.760524,74.5593559 C28.4285696,73.5613375 21.8443736,70.6263952 15.7488332,66.8121915 C13.4929824,65.3833916 11.4427882,63.9354773 9.77328869,62.5645515 C8.95420211,61.885814 8.18944992,61.1950415 7.49566872,60.4950659 C7.0346228,60.0189762 6.64065419,59.561116 6.32225817,59.1257329 C6.28385243,59.0724604 6.24580065,59.018834 6.20827983,58.9652075 C6.11872542,58.8199028 5.70581942,58.1824029 5.31238176,57.5836626 C4.76815289,56.7150202 4.27029408,55.9435426 3.67580147,55.5311676 C3.36165309,55.3060427 3.06608814,55.2092319 2.78963757,55.2092319 C2.72238327,55.2092319 2.65619088,55.2148954 2.5910604,55.2260454 C1.41092442,55.3950661 0.492195285,57.4484461 0.15256107,58.5158426 C0.1522071,58.5169045 0.15185313,58.5181434 0.15149916,58.5192053 C0.097518735,58.6549528 0.057874095,58.7505247 0.03256524,58.7898154 C0.004070655,58.7699931 0.03327318,58.4869941 0.103890195,58.0188687 C0.38901303,56.3431747 1.21022343,52.0842077 1.77161985,49.1890871 C2.06966259,47.6514414 2.29461053,46.4985611 2.32699878,46.3212221 C2.32664481,46.3242309 2.32646783,46.3256468 2.32646783,46.3256468 C2.32664481,46.3256468 2.3268218,46.3236999 2.32717577,46.3205142 C2.32965356,46.3065324 2.33106944,46.298922 2.33106944,46.2976831 C2.3326623,46.2481273 2.32045034,46.2254733 2.29673435,46.2254733 C2.28328349,46.2254733 2.26611594,46.2327296 2.24576267,46.2463575 C2.16718133,46.2847632 2.01462026,46.4366164 1.72064817,46.8603185 C1.59392691,47.0296931 1.45694052,47.2181821 1.31924619,47.4066711 C1.05766236,47.7648888 0.793777725,48.1227525 0.59360769,48.3492933 C0.58263462,48.3616822 0.571838535,48.3735402 0.561219435,48.3850442 C0.424940985,48.5342426 0.34228899,48.5799047 0.294680025,48.5799047 C0.285476805,48.5799047 0.277689465,48.5781349 0.270964035,48.5753031 C0.25308855,48.5565427 0.245832165,48.5163671 0.250787745,48.4514136 C0.365474025,47.998863 0.55608687,47.4302102 0.785636415,46.8143024 C1.21783379,45.7205351 1.94418023,44.033514 3.08042393,41.5228048 C3.1232543,41.4282948 3.16661562,41.3346698 3.21103886,41.2415757 C3.94924329,39.7881748 4.94673075,38.2317687 6.20350124,36.6966009 C6.95427161,35.8132687 7.50044732,35.302667 7.50044732,35.302667 C8.7584567,34.1377517 11.905604,30.8608745 14.0432288,26.0513071 C14.5063985,25.0412537 14.9364721,23.9552737 15.3095565,22.7969069 C15.8302463,21.4725281 16.4723479,19.9962963 17.1510854,18.5795313 C18.3850248,16.0881135 19.5110034,14.3044587 19.8555932,13.7381067 C19.8559472,13.7375757 19.8564781,13.7368678 19.8568321,13.7363368 C19.8773623,13.7073113 19.8904592,13.6751 19.8964767,13.639526 C19.9251483,13.5133357 19.8732917,13.367854 19.7444466,13.179542 C19.3818043,12.5990312 18.454049,11.7445476 17.663103,10.8914799 C17.6615101,10.889887 17.6600943,10.8882942 17.6585014,10.8865243 C16.8705642,10.0161121 16.5596015,9.50090877 16.4399597,9.18676039 C16.3904039,9.04499541 16.365449,8.91066379 16.3711125,8.78642032 C16.3721744,8.77066866 16.3734133,8.75686383 16.3741212,8.74429789 C16.3875721,8.61421392 16.4188985,8.48236009 16.4665074,8.34962134 C16.7997702,7.47920912 18.0399041,6.15288352 20.4493779,5.05026697 C21.0205085,4.78886013 21.6473893,4.52940012 22.2017063,4.36834377 C22.5632867,4.27578061 22.8878772,4.2251629 23.1540626,4.2251629 C23.2689259,4.2251629 23.3729931,4.23454311 23.4644943,4.25418844 C23.4659102,4.2547194 23.4675031,4.25525036 23.4690959,4.25578131 C23.7352814,4.35259211 23.9421768,4.53541761 24.1007554,4.74001227 C24.2761475,4.99522464 24.4256999,5.33255805 24.5552529,5.71077499 C24.5556068,5.71219087 24.5559608,5.71342977 24.5561378,5.71466866 C24.7554229,6.60083256 24.9855034,7.56522383 25.1660281,8.31015369 C25.2833692,8.93473375 25.3768172,9.42126552 25.473982,9.56409241 C25.4778757,9.57949011 25.4798225,9.58745443 25.4798225,9.58745443 C25.4830082,9.58639253 25.4865479,9.58533061 25.4897337,9.58409172 C25.5037155,9.59913544 25.5176973,9.60692279 25.5318561,9.60692279 C25.5348648,9.60692279 25.5378736,9.60656881 25.5407054,9.60586087 C26.1120129,9.40675275 26.5804922,9.23401539 27.0061412,9.08180829 C28.7476736,8.51138563 28.86059,8.52749127 31.0465317,8.13511552 C31.0465317,8.13511552 27.9977881,12.84858 29.3542011,12.8480491 C29.4019871,12.8480491 29.4554366,12.8420316 29.5143726,12.8299966 C30.4541629,12.63726 32.6333792,12.3848793 33.5046764,12.3848793 C33.7917461,12.3848793 33.9370507,12.412312 33.8492662,12.4781504 C31.8475658,13.9825229 27.6774453,17.9386686 27.1981699,19.6978995 C26.8061481,21.1360797 29.6416248,22.1238329 30.1725798,23.7166979 C30.2777089,24.0320852 29.6789686,24.1218166 29.4067657,24.1959733 C25.1628424,25.3538092 26.429524,28.9593476 28.0276986,29.4908336 C28.0276986,29.4908336 23.2482186,35.137009 27.3109093,35.9339725 L28.5439638,37.0518098 C28.5439638,37.0518098 19.7384291,47.6994043 24.199513,58.1351479 C26.6633212,65.2265829 30.0823174,68.4880624 33.0857529,69.9349148 C33.7781182,72.7482684 34.5313664,75.3318954 34.98374,75.4395023 C36.4985546,75.7996668 37.8190397,76.0380655 39.2689008,76.0380655 C40.7223017,76.0380655 42.3054325,75.7986048 44.3444767,75.2019884 C44.3444767,75.2019884 45.0177276,72.8082663 45.6088575,69.8244762 C50.91239,67.8218909 53.4425676,63.1418765 54.5566882,60.1522459 C59.0342317,57.0424425 66.1861955,53.0494839 70.8840854,53.0494839 C73.9388465,53.0494839 75.9562985,54.7384518 75.5248091,59.4568719 C75.5246321,59.4582877 75.5242781,59.4589957 75.5237471,59.4589957 C75.4961375,59.4588187 74.9853588,58.0815214 74.4216615,57.1518192 C74.1961827,56.7288251 73.9719427,56.4185704 73.7885862,56.4185704 C73.6790325,56.4185704 73.5839915,56.529363 73.5117817,56.7930706 C73.4944371,56.8488209 73.4806323,56.8999696 73.4693053,56.9369594 C72.5769469,59.8396904 72.5410189,59.1271488 72.0675841,60.3879899 C72.0672301,60.3888749 72.0670531,60.3895828 72.0666991,60.3904677 C71.6808718,61.0440733 71.2569928,61.6035229 70.7975397,62.1033286 C70.1862335,62.7155197 69.3910399,63.3878857 68.4570901,64.0967106 C67.6776481,64.6501427 66.8362614,65.1918938 65.9384165,65.815058 C65.0671194,66.4198157 64.1713983,67.0104147 63.2590406,67.5834921 C61.2474291,68.8101751 59.0574167,70.0398669 56.8718289,71.1782344 C56.8698821,71.1792963 56.8675813,71.1805352 56.8656345,71.1814202 C56.1552167,71.5382219 55.444091,71.8813958 54.7349121,72.20988 C52.8701981,73.0498508 50.9893785,73.7643393 49.2437754,74.4671467 C49.1890871,74.4892698 49.1342217,74.511039 49.0791794,74.5326311 C48.0917801,74.8832384 47.125088,75.1957939 46.1888374,75.465873 C43.4816748,76.174875 40.9277813,76.4350429 39.6016326,76.4545113 C38.217256,76.4545113 36.812526,76.3246043 35.7364572,76.1557606 Z M22.3868326,5.71431469 C21.8482673,5.71431469 20.9567938,6.23571251 20.2433673,6.64118514 C19.0163303,7.33832905 18.0533549,8.36643492 18.3506897,8.71244059 L20.7038823,10.8652861 C20.860691,11.0500585 21.5548262,11.6785322 21.7703939,11.7450786 C21.8360553,11.7652549 21.8965842,11.7744581 21.9535734,11.7744581 C22.253209,11.7744581 22.4590425,11.5233164 22.819738,11.3081026 C23.2234407,11.067049 23.5119263,10.9075855 23.6051974,10.5419345 C23.6632485,10.3141548 23.5382971,9.56568528 23.4673261,9.32781744 L22.8218618,5.98297793 C22.7494749,5.79165714 22.5944361,5.71431469 22.3868326,5.71431469" id="Fill-5" fill="#663E2C" mask="url(#mask-2)"></path>
                            </g>
                            <path d="M29.2037639,29.0439464 C31.9771188,29.0439464 33.2926484,35.2901011 31.8126998,36.9794229 C30.830433,38.1013308 27.4360377,38.2377862 26.229531,37.0383589 C24.9449738,35.7615891 25.2033719,29.0439464 29.2037639,29.0439464 Z" id="Fill-7" fill="#B4E2FF"></path>
                            <path d="M31.6316441,33.7131647 C31.6316441,35.2878003 30.452924,36.5638621 28.9995232,36.5638621 C27.5457684,36.5638621 26.3674023,35.2878003 26.3674023,33.7131647 C26.3674023,32.1392371 27.5457684,30.8629983 28.9995232,30.8629983 C30.453101,30.8629983 31.6316441,32.1392371 31.6316441,33.7131647" id="Fill-8" fill="#2E3432"></path>
                            <path d="M29.6055198,31.5473993 C29.6357843,32.4250679 29.0975729,33.1586707 28.4034377,33.1875193 C27.7089486,33.2153059 27.1213584,32.5273652 27.090917,31.6496966 C27.0604755,30.7723819 27.5988639,30.0386021 28.2929991,30.0104615 C28.9874882,29.9819669 29.5750784,30.6702616 29.6055198,31.5473993" id="Fill-9" fill="#FFFFFE"></path>
                            <path d="M46.1396355,37.0383589 C44.8550784,35.7615891 45.1136535,29.0439464 49.1140454,29.0439464 C51.8874004,29.0439464 53.2031069,35.2901011 51.7229813,36.9794229 C50.7407146,38.1013308 47.3463193,38.2377862 46.1396355,37.0383589" id="Fill-10" fill="#B4E2FF"></path>
                            <path d="M51.526351,33.7131647 C51.526351,35.2878003 50.3476309,36.5638621 48.8942301,36.5638621 C47.4408293,36.5638621 46.2621092,35.2878003 46.2621092,33.7131647 C46.2621092,32.1392371 47.4408293,30.8629983 48.8942301,30.8629983 C50.3476309,30.8629983 51.526351,32.1392371 51.526351,33.7131647" id="Fill-11" fill="#2E3432"></path>
                            <path d="M23.8662503,57.1334128 C23.8662503,57.1334128 27.4144455,63.7781376 39.0012995,63.8692849 C39.0012995,63.8692849 47.0849124,65.2825101 55.337192,57.473047 C55.337192,57.473047 52.9615224,70.9998336 39.7283539,70.7835579 C39.7285309,70.7835579 29.2120822,73.9105289 23.8662503,57.1334128" id="Fill-12" fill="#2E3432"></path>
                            <path d="M38.9379389,55.5925814 C38.9379389,55.5925814 38.6901599,63.7722971 31.4785521,62.688618 C31.4785521,62.688618 33.9765184,75.2000416 34.98374,75.4395023 C38.016909,76.1607162 40.2713439,76.3936284 44.3444767,75.2019884 C44.3444767,75.2019884 46.3911312,67.9252501 46.4801547,62.9346271 C46.4801547,62.9346271 44.6747307,63.4595646 43.0813347,62.2960652 C41.1383934,60.8768225 38.9198864,58.8225576 38.9379389,55.5925814" id="Fill-13" fill="#FFFFFE"></path>
                            <path d="M49.5140315,31.5473993 C49.544473,32.4250679 49.0064386,33.1586707 48.3121264,33.1875193 C47.6176373,33.2153059 47.0300471,32.5273652 46.9997826,31.6496966 C46.9695182,30.7723819 47.5079066,30.0386021 48.2016878,30.0104615 C48.8963539,29.9819669 49.4837671,30.6702616 49.5140315,31.5473993" id="Fill-14" fill="#FFFFFE"></path>
                            <path d="M43.0813347,62.2960652 C41.1383934,60.8768225 38.9198864,58.8225576 38.9379389,55.5925814 C38.9379389,55.5925814 38.7198934,62.7873756 32.7436409,62.7875526 C32.3594064,62.7875526 31.95181,62.7578191 31.5185507,62.6944585 C31.4497035,62.6741052 31.3817413,62.6533979 31.31431,62.6321597 C29.3894212,61.9574929 27.9039861,61.0893815 26.7843789,60.2433932 C25.5348648,59.2613034 24.4784414,58.0894857 23.9005854,57.1335898 C23.3221984,56.1769858 23.0776051,53.2827501 23.0776051,52.0530584 C23.0776051,46.1272466 30.2819565,41.5228048 38.972274,41.5228048 C47.6627684,41.5228048 55.8412453,46.6137783 55.8412453,52.5395901 C55.8412453,53.650525 56.1306158,56.8420955 55.3715271,57.473047 C55.3578993,57.484374 55.3444484,57.4957011 55.3309975,57.5068511 C55.3352452,57.484551 55.337192,57.473047 55.337192,57.473047 C55.2343637,57.5702118 55.1322434,57.6656067 55.0295921,57.7599397 C54.4319137,58.2661168 53.9528153,58.6940665 53.4448684,59.1121051 C52.1622581,60.1244593 50.8985852,60.930449 49.6848221,61.5706037 C48.8383028,61.9911201 47.7824103,62.4532279 46.9773055,62.7751636 C46.8095238,62.8364004 46.6442198,62.8944515 46.4798007,62.9498478 C46.4799777,62.9447153 46.4801547,62.9397597 46.4801547,62.9346271 C46.4801547,62.9346271 46.0739741,63.0526761 45.4768267,63.0526761 C44.8150798,63.0526761 43.9190047,62.9077254 43.0813347,62.2960652 Z" id="Fill-15" fill="#907964"></path>
                            <path d="M46.4796237,62.9618828 C46.4798007,62.9579891 46.4798007,62.9537415 46.4798007,62.9498478 C46.6442198,62.8944515 46.8095238,62.8364004 46.9773055,62.7751636 C46.8866892,62.8114455 46.7990816,62.8459576 46.7155447,62.8783459 C46.6403261,62.9075484 46.5615678,62.935335 46.4796237,62.9618828 M31.31431,62.6321597 C30.3154067,62.3167725 29.4674715,61.9070522 28.5108676,61.3890171 C27.9142512,61.0660195 27.3309086,60.6727588 26.7843789,60.2433932 C27.9039861,61.0893815 29.3894212,61.9574929 31.31431,62.6321597 M49.6848221,61.5706037 C50.8985852,60.930449 52.1622581,60.1244593 53.4448684,59.1121051 C52.6999385,59.7253581 51.8934179,60.3171959 50.5610748,61.1030093 C50.3205522,61.2449513 50.0189697,61.4045918 49.6848221,61.5706037 M55.0295921,57.7599397 C55.1322434,57.6656067 55.2343637,57.5702118 55.337192,57.473047 C55.337192,57.473047 55.3352452,57.484551 55.3309975,57.5068511 C55.2269304,57.5933968 55.1267568,57.6778186 55.0295921,57.7599397" id="Fill-16" fill="#575E5D"></path>
                            <path d="M44.4681892,63.266474 C43.903784,63.266474 43.360971,63.1901934 42.9383308,63.0126775 C41.9880984,62.6135763 41.5617415,61.920857 40.5858462,61.3704337 C40.1028542,61.0980538 39.5811024,60.6805461 39.1032429,60.6805461 C38.6797178,60.6805461 38.4664509,61.0307995 38.1409754,61.2311465 C37.5817028,61.5752053 36.8980098,62.3626116 36.2385637,62.5394196 C35.2000157,62.817994 34.3409305,63.03073 33.4636159,63.03073 C33.0760187,63.03073 32.6848819,62.9891385 32.2730378,62.8933896 C32.0098611,62.8321528 31.7594273,62.7659604 31.5185507,62.6944585 C31.95181,62.7578191 32.3594064,62.7875526 32.7436409,62.7875526 C38.7198934,62.7873756 38.9379389,55.5925814 38.9379389,55.5925814 C38.9198864,58.8225576 41.1383934,60.8768225 43.0813347,62.2960652 C43.9190047,62.9077254 44.8150798,63.0526761 45.4768267,63.0526761 C46.0739741,63.0526761 46.4801547,62.9346271 46.4801547,62.9346271 C46.4801547,62.9397597 46.4799777,62.9447153 46.4798007,62.9498478 C46.4798007,62.9537415 46.4798007,62.9579891 46.4796237,62.9618828 C45.9007058,63.1493099 45.1678109,63.266474 44.4681892,63.266474" id="Fill-17" fill="#FFFFFE"></path>
                            <path d="M39.0772261,57.6473772 C39.0119186,56.6463501 38.9317444,56.0607067 38.9188245,56.1210586 C38.6604264,57.3539361 38.9963439,65.909391 39.4336739,69.9777452 L39.0772261,57.6473772" id="Fill-18" fill="#6C7573"></path>
                            <path d="M22.819738,11.3081026 C22.3901954,11.5643769 22.1802912,11.8714459 21.7703939,11.7450786 C21.5548262,11.6785322 20.860691,11.0500585 20.7038823,10.8652861 L18.3506897,8.71244059 C18.0533549,8.36643492 19.0163303,7.33832905 20.2433673,6.64118514 C21.2318285,6.07943475 22.5616938,5.2953912 22.8218618,5.98297793 L23.4673261,9.32781744 C23.5382971,9.56568528 23.6632485,10.3141548 23.6051974,10.5419345 C23.5119263,10.9075855 23.2234407,11.067049 22.819738,11.3081026" id="Fill-19" fill="#907964"></path>
                            <path d="M22.6119576,10.8865243 C22.4263003,10.8865243 22.5507208,10.2336267 22.3018799,10.1568152 C22.2963933,10.1550453 22.2898449,10.1543374 22.2824115,10.1543374 C22.1976357,10.1543374 21.992864,10.2607054 21.7884464,10.3672503 C21.5840287,10.4737953 21.379965,10.5801633 21.2964281,10.5801633 C21.2783756,10.5801633 21.2659866,10.5752077 21.2603231,10.5642346 L22.1271957,9.19861839 L20.0483298,8.74447488 L21.7656153,7.96326309 C22.4055931,6.96878438 19.8828489,7.43797161 20.7084839,6.96878438 C21.1962546,6.69162586 21.8617182,6.31305495 22.2510852,6.31305495 C22.3928501,6.31305495 22.4979792,6.3631417 22.5447033,6.48667724 L23.1197275,9.52975732 C23.1860969,9.66037225 23.2515814,10.1932741 23.2124677,10.3467201 C23.149638,10.5927292 22.9556624,10.6998052 22.6838135,10.8621004 C22.6556729,10.878914 22.6319569,10.8865243 22.6119576,10.8865243" id="Fill-20" fill="#B1A89B"></path>
                            <path d="M26.2268762,50.2016183 C26.3040417,50.2016183 26.3666943,50.2694035 26.3666943,50.3529404 C26.3666943,50.4364774 26.3040417,50.5042626 26.2268762,50.5042626 C26.1497107,50.5042626 26.087058,50.4364774 26.087058,50.3529404 C26.087058,50.2694035 26.1497107,50.2016183 26.2268762,50.2016183" id="Fill-21" fill="#2E3432"></path>
                            <path d="M26.3665174,53.744681 C26.4436828,53.744681 26.5063355,53.8124662 26.5063355,53.8960032 C26.5063355,53.9795401 26.4436828,54.0473253 26.3665174,54.0473253 C26.2893519,54.0473253 26.2266992,53.9795401 26.2266992,53.8960032 C26.2266992,53.8124662 26.2893519,53.744681 26.3665174,53.744681" id="Fill-22" fill="#2E3432"></path>
                            <path d="M28.4563562,50.7954029 C28.5335217,50.7954029 28.5961744,50.8631882 28.5961744,50.9467251 C28.5961744,51.030262 28.5335217,51.0980473 28.4563562,51.0980473 C28.3791908,51.0980473 28.3165381,51.030262 28.3165381,50.9467251 C28.3165381,50.8631882 28.3791908,50.7954029 28.4563562,50.7954029" id="Fill-23" fill="#2E3432"></path>
                            <path d="M49.1648401,52.2675642 C49.2420056,52.2675642 49.3046583,52.3353494 49.3046583,52.4188863 C49.3046583,52.5024233 49.2420056,52.5702085 49.1648401,52.5702085 C49.0876747,52.5702085 49.025022,52.5024233 49.025022,52.4188863 C49.025022,52.3353494 49.0876747,52.2675642 49.1648401,52.2675642" id="Fill-24" fill="#2F3633"></path>
                            <path d="M51.785988,50.3529404 C51.8633304,50.3529404 51.9259831,50.4207257 51.9259831,50.5042626 C51.9259831,50.5877995 51.8633304,50.6555848 51.785988,50.6555848 C51.7086455,50.6555848 51.6459928,50.5877995 51.6459928,50.5042626 C51.6459928,50.4207257 51.7086455,50.3529404 51.785988,50.3529404" id="Fill-25" fill="#2E3432"></path>
                            <path d="M51.9259831,53.8961801 C52.0033256,53.8961801 52.0659783,53.9639654 52.0659783,54.0475023 C52.0659783,54.1310392 52.0033256,54.1988245 51.9259831,54.1988245 C51.8486407,54.1988245 51.785988,54.1310392 51.785988,54.0475023 C51.785988,53.9639654 51.8486407,53.8961801 51.9259831,53.8961801" id="Fill-26" fill="#2E3432"></path>
                            <path d="M38.8361725,46.9638547 C32.7500123,46.9638547 33.4232633,48.6441503 33.4469793,48.7036172 C33.6813074,49.7782701 35.0699317,55.3338293 38.8062621,55.6585968 C38.8062621,55.6585968 42.6932066,55.9486752 44.2216491,48.7129974 C44.2476659,48.6505217 44.7724264,46.9638547 38.8361725,46.9638547" id="Fill-27" fill="#2E3432"></path>
                            <path d="M56.4337911,11.1465153 C56.6442262,11.0658101 57.2946461,10.3937981 57.4397738,10.1980527 L59.6453609,7.89423894 C59.9191567,7.52929587 58.8899889,6.56720541 57.6197676,5.95289047 C56.5962633,5.45768644 55.2173732,4.76355127 55.0032213,5.46688967 L54.5807581,8.84712618 C54.5163356,9.16127455 54.4504972,9.84425967 54.523592,10.0677917 C54.640756,10.4263633 54.9387988,10.5663585 55.3577223,10.7799794 C55.8035475,11.0072281 56.033097,11.2997843 56.4337911,11.1465153 Z" id="Fill-28" fill="#907964"></path>
                            <path d="M55.3706422,10.2814127 C55.3504659,10.2814127 55.3267499,10.2738023 55.2986093,10.2569887 C55.0269373,10.0948704 54.8329617,9.98761752 54.7703091,9.74160837 C54.7311954,9.58816238 54.7965028,9.05526054 54.8628722,8.92464561 L55.4380735,5.88156552 C55.4847975,5.75802999 55.5897496,5.70794323 55.7315146,5.70794323 C56.1208816,5.70794323 56.7865222,6.08651415 57.2742928,6.36367266 C58.0997509,6.83285989 55.5770067,6.36367266 56.2171614,7.35815137 L57.9340929,8.13936316 L55.8552271,8.59350668 L56.7220996,9.95912294 C56.7166131,9.970096 56.7042241,9.97505158 56.6861717,9.97505158 C56.6026348,9.97505158 56.3985711,9.8686836 56.1941534,9.76213863 C55.9897357,9.65559366 55.7849641,9.54922567 55.7000113,9.54922567 C55.6925779,9.54922567 55.6860294,9.54993362 55.6805429,9.55170346 C55.432056,9.62851496 55.5564764,10.2815896 55.3706422,10.2814127" id="Fill-29" fill="#B1A89B"></path>
                        </g>
                    </g>
                </g>
            </g>
        </g>
    </g>
</svg>