<svg width="164" height="61" viewBox="0 0 164 61" fill="none" xmlns="http://www.w3.org/2000/svg">
<rect y="30.3438" width="163.854" height="29.1295" fill="#A9F9E1"/>
<path d="M10.8096 54L5.59222 5.28569L15.1196 5.28569L17.8417 36.0228L20.5638 5.28569L29.6375 5.28569L32.2461 36.0228L34.8548 5.28569L44.4956 5.28569L39.1648 54H27.4825L25.0439 30.5219L22.7188 54H10.8096ZM47.383 5.28569L62.3545 5.28569C64.7364 5.28569 66.57 5.83389 67.8555 6.93029C69.1787 7.98889 70.0672 9.50117 70.5209 11.4671C70.9745 13.3953 71.2014 15.8716 71.2014 18.8962C71.2014 21.6561 70.8422 23.8111 70.1239 25.3612C69.4056 26.9113 68.1579 27.9888 66.381 28.5937C67.8555 28.8962 68.9141 29.6334 69.5568 30.8054C70.2373 31.9774 70.5776 33.5653 70.5776 35.5691L70.4641 54H60.9368V34.9453C60.9368 33.5842 60.6721 32.7147 60.1428 32.3366C59.6135 31.9585 58.6495 31.7695 57.2506 31.7695V54H47.383L47.383 5.28569ZM59.6324 23.3196C60.9935 23.3196 61.674 21.8452 61.674 18.8962C61.674 17.6108 61.6173 16.6467 61.5039 16.004C61.3905 15.3613 61.1825 14.9265 60.8801 14.6996C60.5776 14.435 60.1428 14.3027 59.5757 14.3027H57.3073L57.3073 23.3196H59.6324ZM73.9554 54L73.9554 5.28569L83.3693 5.28569L83.3693 54H73.9554ZM91.4541 54L91.4541 14.6429L85.6696 14.6429V5.28569L106.993 5.28569V14.6429H101.208L101.208 54H91.4541ZM109.742 54L109.742 5.28569L129.251 5.28569V14.6996L119.667 14.6996V24.1703L128.854 24.1703V33.3574H119.667L119.667 44.5293H129.875V54L109.742 54ZM133.113 5.28569L148.085 5.28569C150.467 5.28569 152.3 5.83389 153.586 6.93029C154.909 7.98889 155.797 9.50117 156.251 11.4671C156.705 13.3953 156.932 15.8716 156.932 18.8962C156.932 21.6561 156.573 23.8111 155.854 25.3612C155.136 26.9113 153.888 27.9888 152.111 28.5937C153.586 28.8962 154.644 29.6334 155.287 30.8054C155.968 31.9774 156.308 33.5653 156.308 35.5691L156.194 54H146.667V34.9453C146.667 33.5842 146.402 32.7147 145.873 32.3366C145.344 31.9585 144.38 31.7695 142.981 31.7695V54H133.113V5.28569ZM145.363 23.3196C146.724 23.3196 147.404 21.8452 147.404 18.8962C147.404 17.6108 147.348 16.6467 147.234 16.004C147.121 15.3613 146.913 14.9265 146.61 14.6996C146.308 14.435 145.873 14.3027 145.306 14.3027H143.038V23.3196H145.363Z" fill="black"/>
</svg>
