<svg viewBox="0 0 123 30" fill="none" xmlns="http://www.w3.org/2000/svg">
<path d="M4.23387 4.87715H12.6705C15.6279 4.87715 15.9704 6.30919 15.9704 9.3912C15.9704 12.4421 15.6591 13.9052 12.6705 13.9052H6.81777L4.23387 16.4891V4.87715ZM20.1731 9.3912C20.1731 5.77996 19.426 0.985729 13.0752 0.985729H4.23387C1.89901 0.954598 0 2.85361 0 5.18846V29.5643H4.23387V17.7967H7.65831L15.9704 29.5643H21.0759L12.4837 17.7655C17.7137 17.4853 20.1731 14.7769 20.1731 9.3912Z" fill="#784DFF"/>
<path d="M31.7852 11.29C35.2719 11.29 37.8869 13.4069 38.6341 16.7691H24.874C25.6212 13.4069 28.2673 11.29 31.7852 11.29ZM31.7852 7.5542C28.7965 7.5542 25.9636 8.73719 23.8467 10.8853C21.7297 13.0022 20.5467 15.8663 20.5779 18.886C20.6401 25.4236 25.2476 29.9999 31.7852 29.9999C36.1747 29.9999 39.9104 27.883 41.4981 24.4897L41.8406 23.7736H37.2954L37.1398 23.9604C35.9568 25.4859 34.0889 26.2641 31.7852 26.2641C28.1117 26.2641 25.4344 23.9916 24.8117 20.4737H41.3114C42.2453 20.4737 42.9924 19.7266 42.9924 18.8238C43.0236 12.255 38.2916 7.5542 31.7852 7.5542Z" fill="#784DFF"/>
<path d="M46.1367 11.7568C44.8915 11.7568 43.8641 12.7842 43.8641 14.0294C43.8641 15.2747 44.8915 16.302 46.1367 16.302C47.382 16.302 48.4093 15.2747 48.4093 14.0294C48.4093 12.7842 47.382 11.7568 46.1367 11.7568Z" fill="#784DFF"/>
<path d="M46.1367 21.3765C44.8915 21.3765 43.8641 22.4038 43.8641 23.6491C43.8641 24.8943 44.8915 25.9216 46.1367 25.9216C47.382 25.9216 48.4093 24.8943 48.4093 23.6491C48.4093 22.4038 47.382 21.3765 46.1367 21.3765Z" fill="#784DFF"/>
<path d="M50.2771 10.6051V29.5641H54.4176V7.95898H52.9233C51.4601 7.95898 50.2771 9.14198 50.2771 10.6051Z" fill="#F3F3FF"/>
<path d="M74.9022 13.6248C74.7154 9.82676 72.6296 7.80322 68.8938 7.80322H63.6949C59.7723 7.80322 57.6865 9.82676 57.6865 13.6559V29.564H61.827V11.6635H68.6448C70.1079 11.6635 70.7617 12.722 70.7617 13.7804V29.5952H74.9022V15.4927V14.2474V13.6248Z" fill="#F3F3FF"/>
<path d="M87.2924 11.5076C87.915 10.5426 88.631 9.63975 89.4715 8.86147L90.4055 7.98979H83.0896V4.68986H89.7517V0.954102H84.9264C81.0661 0.954102 79.0114 3.1333 79.0114 7.24264V7.95866H76.2407V11.7567H79.0114V29.5638H83.0896V11.7567H87.1367L87.2924 11.5076Z" fill="#F3F3FF"/>
<path d="M92.18 16.7691C92.9272 13.4069 95.5734 11.29 99.0912 11.29C102.578 11.29 105.193 13.4069 105.94 16.7691H92.18ZM99.0912 7.5542C92.5847 7.5542 87.8839 12.255 87.8839 18.7615C87.8839 25.3613 92.4914 29.9688 99.0912 29.9688C103.481 29.9688 107.216 27.8518 108.804 24.4585L109.147 23.7425H104.601L104.446 23.9293C103.263 25.4547 101.395 26.233 99.0912 26.233C95.4177 26.233 92.7404 23.9604 92.1178 20.4426H110.174L110.236 19.9756C110.267 19.602 110.33 19.1662 110.33 18.7615C110.298 12.255 105.598 7.5542 99.0912 7.5542Z" fill="#F3F3FF"/>
<path d="M118.081 7.80322C114.252 7.80322 112.073 9.92016 112.073 13.6559V29.564H116.213V11.6635H123V7.80322H118.081Z" fill="#F3F3FF"/>
<path d="M52.3319 0.92334C51.0867 0.92334 50.0593 1.95067 50.0593 3.19593C50.0593 4.44118 51.0867 5.46852 52.3319 5.46852C53.5772 5.46852 54.6045 4.44118 54.6045 3.19593C54.6045 1.95067 53.5772 0.92334 52.3319 0.92334Z" fill="#F3F3FF"/>
</svg>
