<?xml version="1.0" encoding="UTF-8" standalone="no"?>
<!-- Created with Inkscape (http://www.inkscape.org/) -->

<svg
   xmlns:dc="http://purl.org/dc/elements/1.1/"
   xmlns:cc="http://creativecommons.org/ns#"
   xmlns:rdf="http://www.w3.org/1999/02/22-rdf-syntax-ns#"
   xmlns:svg="http://www.w3.org/2000/svg"
   xmlns="http://www.w3.org/2000/svg"
   xmlns:sodipodi="http://sodipodi.sourceforge.net/DTD/sodipodi-0.dtd"
   xmlns:inkscape="http://www.inkscape.org/namespaces/inkscape"
   id="svg4755"
   version="1.1"
   inkscape:version="0.48.5 r10040"
   width="86"
   height="60"
   xml:space="preserve"
   sodipodi:docname="logo-tightcrop.svg"><metadata
     id="metadata4761"><rdf:RDF><cc:Work
         rdf:about=""><dc:format>image/svg+xml</dc:format><dc:type
           rdf:resource="http://purl.org/dc/dcmitype/StillImage" /><dc:title></dc:title></cc:Work></rdf:RDF></metadata><defs
     id="defs4759"><clipPath
       clipPathUnits="userSpaceOnUse"
       id="clipPath4771"><path
         d="M 0,3153.92 0,0 l 4497.61,0 0,3153.92 -4497.61,0 z"
         id="path4773"
         inkscape:connector-curvature="0" /></clipPath></defs><sodipodi:namedview
     pagecolor="#ffffff"
     bordercolor="#666666"
     borderopacity="1"
     objecttolerance="10"
     gridtolerance="10"
     guidetolerance="10"
     inkscape:pageopacity="0"
     inkscape:pageshadow="2"
     inkscape:window-width="1920"
     inkscape:window-height="1031"
     id="namedview4757"
     showgrid="false"
     inkscape:zoom="9.9584205"
     inkscape:cx="25.125679"
     inkscape:cy="30"
     inkscape:window-x="0"
     inkscape:window-y="1"
     inkscape:window-maximized="1"
     inkscape:current-layer="g4763" /><g
     id="g4763"
     inkscape:groupmode="layer"
     inkscape:label="ink_ext_XXXXXX"
     transform="matrix(1.25,0,0,-1.25,0,60.000012)"><g
       id="g4822"
       transform="scale(0.15219156,0.15219156)"><path
         d="M 449.761,315.392 0,315.392 0,84.748 224.88,0 l -43.082,84.748 267.963,0 0,230.644"
         style="fill:#ffffff;fill-opacity:1;fill-rule:nonzero;stroke:none"
         id="path4775"
         inkscape:connector-curvature="0" /><path
         d="M 196.341,56.1449 0,84.748 l 181.015,0 15.284,-28.525 0.04,-0.0781"
         style="fill:#000000;fill-opacity:1;fill-rule:nonzero;stroke:none;opacity:0.1"
         id="path4777"
         inkscape:connector-curvature="0" /><path
         d="m 110.946,213.443 c 8.059,0 14.938,7.469 14.938,15.726 0,8.256 -6.879,14.94 -14.938,14.94 l -29.0937,0 0,-30.666 29.0937,0 z m -59.9554,55.041 c 0,1.966 1.5715,3.735 3.734,3.735 l 58.7764,0 c 23.591,0 42.854,-19.068 42.854,-42.46 0,-18.086 -11.99,-32.632 -29.093,-39.513 l 26.931,-49.929 c 1.376,-2.557 0,-5.703 -3.34,-5.703 l -26.145,0 c -1.574,0 -2.753,0.983 -3.147,1.771 l -26.143,52.092 -13.5657,0 0,-50.127 c 0,-1.965 -1.7683,-3.736 -3.7355,-3.736 l -23.3922,0 c -2.1625,0 -3.734,1.771 -3.734,3.736 l 0,130.134"
         style="fill:#71cfc9;fill-opacity:1;fill-rule:nonzero;stroke:none"
         id="path4779"
         inkscape:connector-curvature="0" /><path
         d="m 172.867,268.484 c 0,1.966 1.573,3.735 3.736,3.735 l 81.383,0 c 2.161,0 3.733,-1.769 3.733,-3.735 l 0,-21.427 c 0,-1.965 -1.572,-3.735 -3.733,-3.735 l -54.452,0 0,-24.375 44.818,0 c 1.967,0 3.736,-1.769 3.736,-3.735 l 0,-21.427 c 0,-2.163 -1.769,-3.735 -3.736,-3.735 l -44.818,0 0,-26.538 54.452,0 c 2.161,0 3.733,-1.769 3.733,-3.735 l 0,-21.427 c 0,-1.965 -1.572,-3.736 -3.733,-3.736 l -81.383,0 c -2.163,0 -3.736,1.771 -3.736,3.736 l 0,130.134"
         style="fill:#71cfc9;fill-opacity:1;fill-rule:nonzero;stroke:none"
         id="path4781"
         inkscape:connector-curvature="0" /><path
         d="m 320.104,205.186 -39.709,61.529 c -1.573,2.556 0,5.504 3.341,5.504 l 28.7,0 c 1.377,0 2.557,-0.982 3.145,-1.769 l 22.607,-36.563 0.197,0 23,36.563 c 0.393,0.787 1.768,1.769 3.145,1.769 l 28.7,0 c 3.342,0 5.112,-2.948 3.342,-5.504 l -39.905,-61.529 41.281,-65.066 c 1.769,-2.752 0,-5.506 -3.146,-5.506 l -27.323,0 c -1.18,0 -2.752,0.788 -3.342,1.771 l -25.752,39.708 -0.395,0 -25.16,-39.708 c -0.591,-0.788 -1.768,-1.771 -3.342,-1.771 l -27.323,0 c -3.343,0 -5.112,2.951 -3.343,5.506 l 41.282,65.066"
         style="fill:#71cfc9;fill-opacity:1;fill-rule:nonzero;stroke:none"
         id="path4783"
         inkscape:connector-curvature="0" /></g></g></svg>