<svg xmlns="http://www.w3.org/2000/svg" width="163" height="40" viewBox="0 0 163 40">
    <g fill="#00DCFF">
        <path d="M72.252 20.85c1.17-1.557 1.773-3.486 1.7-5.452.12-2.359-.81-4.645-2.529-6.212C69.773 7.736 67.446 7 64.518 7h-7.747c-.426 0-.771.355-.771.794v23.418c.003.435.348.787.771.787h.633c.21.012.416-.064.57-.212.154-.147.243-.353.246-.569v-7.26h6.323c.456 0 1.031-.032 1.72-.09l5.527 7.805c.147.209.383.33.633.326h.809c.289.003.554-.164.683-.43.133-.265.108-.585-.063-.826l-5.224-7.383c1.413-.47 2.669-1.34 3.624-2.51zM58.22 9.282h6.323c2.359 0 4.187.547 5.439 1.62 1.252 1.073 1.82 2.537 1.82 4.553 0 2.017-.631 3.559-1.833 4.652-1.201 1.092-3.073 1.671-5.426 1.671H58.22V9.283zM96.74 8.694c-5.944-3.467-13.502-1.449-17.04 4.551-2.266 3.846-2.266 8.662 0 12.508 1.112 1.89 2.68 3.457 4.553 4.55 3.872 2.263 8.622 2.263 12.494 0 1.871-1.094 3.439-2.66 4.554-4.55 2.265-3.844 2.265-8.658 0-12.502-1.11-1.897-2.682-3.467-4.56-4.557zm-6.234 21.057c-1.803.008-3.577-.47-5.143-1.385-1.563-.896-2.874-2.19-3.806-3.758-.918-1.54-1.4-3.31-1.395-5.116-.009-1.797.475-3.56 1.395-5.09.937-1.56 2.247-2.85 3.806-3.744 3.183-1.855 7.084-1.855 10.268 0 1.559.895 2.868 2.184 3.805 3.744 1.857 3.136 1.857 7.07 0 10.206-.92 1.563-2.218 2.857-3.767 3.758-1.572.92-3.353 1.398-5.163 1.385z"/>
        <rect width="2" height="26" x="110" y="6" rx="1"/>
        <rect width="2" height="26" x="120" y="6" rx="1"/>
        <path d="M131.533 6.413c-.579-.55-1.48-.55-2.059 0-.307.274-.48.67-.474 1.085 0 .403.165.788.457 1.061.268.279.634.437 1.018.44.614.021 1.177-.346 1.412-.921.236-.576.095-1.239-.354-1.665z"/>
        <rect width="2" height="19" x="129" y="13" rx="1"/>
        <path d="M161.307 13.24C159.017 9.365 154.92 7 150.503 7c-4.417 0-8.514 2.366-10.804 6.24-2.265 3.846-2.265 8.664 0 12.51 1.113 1.892 2.681 3.46 4.554 4.553 3.872 2.263 8.622 2.263 12.494 0 1.872-1.096 3.442-2.662 4.56-4.552 2.257-3.847 2.257-8.658 0-12.505v-.007zm-10.782 16.51c-1.803.009-3.577-.469-5.143-1.385-1.55-.901-2.847-2.196-3.767-3.759-1.857-3.137-1.857-7.072 0-10.21.936-1.56 2.246-2.85 3.805-3.745 3.183-1.856 7.084-1.856 10.268 0 1.547.9 2.846 2.189 3.773 3.746.921 1.53 1.404 3.294 1.396 5.091.005 1.806-.478 3.577-1.396 5.118-.923 1.564-2.222 2.858-3.773 3.759-1.577.924-3.365 1.402-5.182 1.385h.02zM28.402 0H5.6C2.508 0 0 2.505 0 5.596v28.808c.004 3.088 2.51 5.59 5.601 5.59h10.643c.625 0 1.13-.506 1.13-1.13V34.06l5.621 5.609c.212.212.5.332.8.331h10.643C37.516 39.979 40 37.48 40 34.404V11.587C39.993 5.191 34.804.007 28.402 0zm9.337 34.404c-.018 1.814-1.485 3.28-3.301 3.298H24.237l-7.213-7.192c-.053-.053-.112-.099-.175-.137l-.059-.039-.136-.065h-.065l-.143-.039h-.078c-.048-.003-.096-.003-.143 0H16.01c-.048.01-.096.023-.143.04h-.071l-.136.064-.059.04c-.126.08-.234.187-.318.31-.013.03-.028.059-.046.085l-.058.11c0 .033 0 .072-.033.104-.032.033 0 .072 0 .11-.007.063-.007.126 0 .189v6.433H5.601c-1.834 0-3.326-1.478-3.34-3.31V9.801h21.514c3.464.11 6.216 2.948 6.216 6.41 0 3.463-2.752 6.3-6.216 6.41H9.812V17.34h13.963c.625 0 1.13-.506 1.13-1.13 0-.624-.505-1.13-1.13-1.13H8.681c-.303 0-.594.122-.806.338-.213.216-.33.509-.325.811v15.06c0 .624.507 1.13 1.131 1.13s1.13-.506 1.13-1.13v-6.406h13.496l7.232 7.211c.213.21.5.327.8.325.3 0 .588-.117.805-.325.435-.446.435-1.157 0-1.603l-5.984-5.953c4.152-1.192 6.793-5.256 6.193-9.531-.6-4.275-4.257-7.457-8.578-7.463H2.261V5.596c0-1.843 1.496-3.337 3.34-3.337h22.8c5.154.007 9.33 4.18 9.338 9.328v22.817z"/>
    </g>
</svg>
