<?xml version="1.0" encoding="UTF-8"?>
<svg width="800px" height="175px" viewBox="0 0 800 175" version="1.1" xmlns="http://www.w3.org/2000/svg" xmlns:xlink="http://www.w3.org/1999/xlink">
    <!-- Generator: Sketch 64 (93537) - https://sketch.com -->
    <title>Rollbar-Logo-Full-Color</title>
    <desc>Created with Sketch.</desc>
    <g id="Symbols" stroke="none" stroke-width="1" fill="none" fill-rule="evenodd">
        <g id="Rollbar-Logo-Full-Color" transform="translate(0.000000, -1.000000)">
            <g id="Shape">
                <path d="M208.75,6.17 C208.747032,5.83432541 208.713561,5.49961524 208.65,5.17 C208.65,5.07 208.6,4.98 208.57,4.88 C208.54,4.78 208.44,4.43 208.36,4.21 L208.21,3.89 C208.11684,3.69913405 208.00989,3.51531354 207.89,3.34 C207.82,3.23 207.75,3.12 207.67,3.01 L207.53,2.82 C207.45,2.73 207.36,2.66 207.28,2.58 L207.08,2.34 L206.92,2.23 C206.773447,2.10468064 206.619864,1.98782412 206.46,1.88 L206.07,1.63 C205.898092,1.53988119 205.721132,1.45974824 205.54,1.39 L205.12,1.22 C204.93,1.16 204.73,1.13 204.54,1.09 L204.11,1 C203.873573,0.984927983 203.636427,0.984927983 203.4,1 L203,1 C200.32,1.24 164.91,4.62 125.11,22.37 C101.21,33 82.71,49.32 71.07,69.13 L68.07,70.43 C25.46,89.45 0,126.42 0,169.33 L0,170.05 C0,172.066425 1.17188343,173.899139 3,174.75 C3.68722182,175.064928 4.43405587,175.230071 5.19,175.230071 L146.64,175.230071 C146.914889,175.230071 147.18935,175.20811 147.46,175.16 L147.82,175.07 C147.99,175.02 148.16,174.99 148.33,174.93 C148.5,174.87 148.58,174.81 148.71,174.75 C148.84,174.69 149.01,174.63 149.15,174.55 C149.414016,174.394052 149.66485,174.216796 149.9,174.02 L206.9,125.96 C208.079952,124.968387 208.754848,123.501221 208.74,121.96 L208.74,6.17 L208.75,6.17 Z M157.21,154.28 L151.74,158.89 L151.74,56.64 L198.38,17.33 L198.38,119.58 L157.21,154.28 Z M64.09,127.17 L141.37,127.17 L141.37,164.86 L19.37,164.86 L64.09,127.17 Z M129.32,31.85 C147.53582,23.8295373 166.590665,17.8692381 186.13,14.08 L144.44,49.23 C125.196435,51.578017 106.269377,56.0347959 88,62.52 C98.32,49.92 112.24,39.47 129.32,31.85 Z M78.09,77.43 C98.3918814,69.0731185 119.644893,63.2460049 141.37,60.08 L141.37,116.8 L67.49,116.8 C68.0227605,103.047287 71.6457139,89.5910909 78.09,77.43 L78.09,77.43 Z M63.86,84.05 C59.4907433,95.3876679 57.1680687,107.410726 57,119.56 L11,158.38 C14.48,126.84 33.21,100.46 63.86,84.05 Z" fill="#3C72FF"></path>
                <path d="M248.54,145.42 L248.54,28 L297.14,28 C309.7,28 319.796667,31.2566667 327.43,37.77 C335.063333,44.2833333 338.876667,53.88 338.87,66.56 C339.228834,80.374256 332.091191,93.3031069 320.21,100.36 L345.38,145.44 L311.93,145.44 L292.04,105.44 L279,105.44 L279,145.44 L248.54,145.42 Z M279,81 L294.14,81 C297.848937,81.1423861 301.457119,79.7748849 304.14,77.21 C306.788021,74.5253575 308.194539,70.85681 308.02,67.09 C308.02,62.63 306.786667,59.1066667 304.32,56.52 C301.853333,53.9333333 298.413333,52.6366667 294,52.63 L279,52.63 L279,81 Z M349.26,104 C349.15989,96.1950549 351.06759,88.4953854 354.8,81.64 C358.445953,75.007085 363.837276,69.4981839 370.39,65.71 C377.401379,61.6934152 385.37113,59.6543202 393.45,59.81 C402.256667,59.81 409.976667,61.7766667 416.61,65.71 C423.126211,69.5298953 428.480678,75.0502849 432.1,81.68 C435.83344,88.5209555 437.744661,96.2071645 437.65,104 C437.752898,111.806504 435.841379,119.507688 432.1,126.36 C428.475093,132.977785 423.121294,138.487117 416.61,142.3 C409.943333,146.233333 402.223333,148.2 393.45,148.2 C385.37113,148.35568 377.401379,146.316585 370.39,142.3 C363.841894,138.519201 358.451154,133.021269 354.8,126.4 C351.059655,119.533252 349.151659,111.81861 349.26,104 Z M393.45,122.14 C397.975121,122.320958 402.330158,120.401789 405.25,116.94 C408.243519,113.306404 409.80806,108.70523 409.65,104 C409.806211,99.2950444 408.241886,94.6945054 405.25,91.06 C402.219419,87.7535835 397.940177,85.8710117 393.455,85.8710117 C388.969823,85.8710117 384.690581,87.7535835 381.66,91.06 C378.66043,94.690798 377.091957,99.293076 377.25,104 C377.075268,108.727627 378.64484,113.354482 381.66,117 C384.578807,120.455232 388.930821,122.367313 393.45,122.18 L393.45,122.14 Z M451.38,145.38 L481.14,145.38 L481.14,28 L451.38,28 L451.38,145.38 Z M498.38,145.38 L528.14,145.38 L528.14,28 L498.39,28 L498.38,145.38 Z M545.38,141.5 L545.38,28 L575.14,28 L575.14,69.36 C577.115635,67.1120822 579.545835,65.3090303 582.27,64.07 C584.74319,62.9546784 587.337097,62.129192 590,61.61 C591.974707,61.1956439 593.982943,60.9613497 596,60.91 C603.74,60.91 610.283333,62.8433333 615.63,66.71 C620.977117,70.6004059 625.174794,75.8621861 627.78,81.94 C630.548014,88.3018089 631.954801,95.1722405 631.91,102.11 C631.91,116.663333 627.686667,127.996667 619.24,136.11 C610.793333,144.223333 598.35,148.273333 581.91,148.26017 C575.129395,148.273048 568.368195,147.535218 561.75,146.06 C556.218722,144.864496 550.759908,143.355393 545.4,141.54 L545.38,141.5 Z M575.14,102.24 L575.14,122.14 C576.604997,122.657898 578.105592,123.068974 579.63,123.37 C581.573893,123.744245 583.550529,123.921807 585.53,123.9 C589.991953,124.062001 594.303322,122.273203 597.34,119 C600.4,115.706667 601.926667,110.483333 601.920022,103.33 C601.906055,100.662549 601.460287,98.0149544 600.6,95.49 C599.799223,92.9758143 598.374978,90.7052777 596.46,88.89 C594.438712,87.0740588 591.784374,86.1258246 589.07,86.25 C584.136667,86.25 580.586667,87.7766667 578.42,90.83 C576.145716,94.2039717 575.003973,98.2140797 575.16,102.28 L575.14,102.24 Z M693.46,145.38 L692.4,137.63 C689.273638,141.207143 685.407946,144.062911 681.07,146 C676.528899,147.646334 671.718486,148.423192 666.89,148.29 C662.983783,148.239766 659.114834,147.522793 655.45,146.17 C651.375733,144.701549 647.822156,142.069399 645.23,138.6 C642.41,134.933333 641,129.813333 641,123.24 C641,116.573333 642.82,110.996667 646.46,106.51 C650.314197,101.894516 655.335077,98.396475 661,96.38 C667.279931,94.0691773 673.92884,92.9237485 680.62,93 C683.32,93 685.493333,93.06 687.14,93.18 C688.78,93.29 690.54,93.47 692.42,93.71 L692.42,92.07 C692.42,89.1433333 691.686667,86.9433333 690.22,85.47 C688.740582,83.9943507 686.882209,82.9561535 684.85,82.47 C682.836959,81.9543911 680.768005,81.6890544 678.69,81.68 C674.005778,81.5994978 669.339219,82.2748319 664.87,83.68 C661.402498,84.7459855 658.110613,86.3161171 655.1,88.34 L643.83,71.29 C647.35,68.4766667 652.306667,65.8966667 658.7,63.55 C665.093333,61.2033333 673.163333,60.02 682.91,60 C694.416667,60 703.72,62.9666667 710.82,68.9 C717.92,74.8333333 721.47,83.6633333 721.47,95.39 L721.47,145.39 L693.46,145.38 Z M692.4,115.09 L692.4,109.64 C689.734445,109.105346 687.017921,108.867231 684.3,108.93 C679.366667,108.93 675.73,109.9 673.39,111.84 C671.176669,113.486194 669.871553,116.081597 669.87,118.84 C669.87,124.953333 673.156667,128.006667 679.73,128.000011 C682.814236,127.98865 685.821541,127.036221 688.35,125.27 C691.063333,123.443333 692.42,120.063333 692.42,115.13 L692.4,115.09 Z M738.4,145.38 L738.4,62.66 L767.1,62.66 L768.1,73.05 C770.466295,69.749471 773.422696,66.9151228 776.82,64.69 C780.581049,62.3174987 784.965284,61.1230647 789.41,61.26 C791.438957,61.2377048 793.467053,61.3546461 795.48,61.61 C797.007113,61.7878053 798.511768,62.1229179 799.97,62.61 L796.13,88 C793.304736,87.3167768 790.406639,86.9809603 787.5,87 C774.586667,87 768.13,94.1033333 768.13,108.31 L768.13,145.46 L738.4,145.38 Z" fill="#343F55"></path>
            </g>
        </g>
    </g>
</svg>
