<?xml version="1.0" encoding="utf-8"?>
<!-- Generator: Adobe Illustrator 24.2.0, SVG Export Plug-In . SVG Version: 6.00 Build 0)  -->
<svg version="1.1" id="Layer_1" xmlns="http://www.w3.org/2000/svg" xmlns:xlink="http://www.w3.org/1999/xlink" x="0px" y="0px"
	 viewBox="0 0 501.6 173.6" style="enable-background:new 0 0 501.6 173.6;" xml:space="preserve">
<style type="text/css">
	.st0{fill:#5DA7E5;}
	.st1{fill:#006DB6;}
	.st2{fill:#A5D3ED;}
	.st3{fill:#FFFFFF;}
</style>
<g>
	<g>
		<polygon class="st0" points="68.7,82.7 68.7,132.5 85.9,124.3 85.9,99.4 103.1,91.1 103.1,66.3 		"/>
		<polygon class="st1" points="0,32.9 0,132.5 34.4,116 34.4,66.3 68.7,49.8 68.7,0 		"/>
		<polygon class="st2" points="103.1,132.5 122.1,124.3 122.1,99.4 103.1,107.6 		"/>
	</g>
	<path class="st3" d="M149.8,78.8v9.7h0.2c1.8-3.7,4.1-6.5,6.7-8.2c2.7-1.8,6-2.6,10.1-2.5v8c-3,0-5.6,0.4-7.7,1.2
		c-2.1,0.8-3.8,2-5.1,3.6s-2.2,3.5-2.8,5.8s-0.9,4.9-0.9,7.8v20.4h-7.5V78.8H149.8z"/>
	<path class="st3" d="M202.8,124.7v-7.3h-0.2c-1.6,2.8-3.6,4.9-6.1,6.3c-2.5,1.3-5.4,2-8.8,2c-3,0-5.5-0.4-7.5-1.2
		c-2-0.8-3.6-1.9-4.9-3.4c-1.2-1.5-2.1-3.2-2.6-5.3c-0.5-2-0.8-4.3-0.8-6.8V78.8h7.5v31c0,2.8,0.8,5.1,2.5,6.7
		c1.7,1.7,3.9,2.5,6.8,2.5c2.3,0,4.3-0.4,6-1.1s3.1-1.7,4.2-3c1.1-1.3,2-2.8,2.5-4.6c0.6-1.7,0.8-3.6,0.8-5.7V78.8h7.5v45.8
		L202.8,124.7L202.8,124.7z"/>
	<path class="st3" d="M225.2,61.4V85h0.2c1.2-2.5,3.2-4.4,5.9-5.5c2.7-1.2,5.6-1.7,8.8-1.7c3.5,0,6.6,0.7,9.3,1.9
		c2.6,1.3,4.8,3.1,6.6,5.3c1.7,2.2,3.1,4.8,3.9,7.7c0.9,2.9,1.3,6,1.3,9.2c0,3.3-0.4,6.3-1.3,9.2c-0.9,2.9-2.2,5.4-3.9,7.6
		c-1.7,2.2-3.9,3.9-6.6,5.1c-2.6,1.2-5.7,1.9-9.2,1.9c-1.1,0-2.4-0.1-3.8-0.4c-1.4-0.2-2.8-0.6-4.1-1.2c-1.4-0.5-2.6-1.3-3.9-2.2
		c-1.2-0.9-2.2-2.1-3.1-3.4h-0.2v6.1h-7.5V61.4H225.2z M252.3,95.1c-0.6-2-1.4-3.9-2.6-5.5c-1.2-1.6-2.6-2.9-4.4-3.8
		c-1.8-0.9-3.9-1.4-6.3-1.4c-2.5,0-4.7,0.5-6.5,1.5s-3.2,2.3-4.3,3.9s-1.9,3.5-2.4,5.5c-0.5,2.1-0.8,4.2-0.8,6.3
		c0,2.2,0.3,4.4,0.8,6.5s1.4,3.9,2.5,5.5c1.2,1.6,2.6,2.9,4.5,3.9c1.8,1,4,1.5,6.6,1.5s4.8-0.5,6.5-1.5s3.1-2.3,4.2-4
		c1.1-1.7,1.8-3.5,2.3-5.7c0.5-2.1,0.7-4.3,0.7-6.6C253.1,99.2,252.8,97.1,252.3,95.1z"/>
	<path class="st3" d="M275.4,75.5v49.2h-7.5V78.8L275.4,75.5z M275.4,68l-7.5,3.3v-7.5l7.5-3.3V68z"/>
	<path class="st3" d="M290.7,53.5v45.4l20.9-20h10.1l-18.2,16.7l19.5,29.2h-9.6l-15.7-23.9l-7.1,6.6v17.4h-7.5V56.8L290.7,53.5z"/>
	<path class="st3" d="M335.4,61.4v63.3h-7.5V61.4H335.4z"/>
	<path class="st3" d="M343.6,92.4c0.9-2.9,2.4-5.5,4.3-7.6c1.9-2.2,4.2-3.9,7-5.1s6-1.9,9.6-1.9c3.7,0,6.9,0.6,9.6,1.9
		c2.7,1.2,5.1,2.9,7,5.1s3.3,4.7,4.3,7.6c0.9,2.9,1.4,6.1,1.4,9.4c0,3.4-0.5,6.5-1.4,9.4s-2.4,5.4-4.3,7.6s-4.2,3.8-7,5.1
		c-2.7,1.2-6,1.8-9.6,1.8s-6.8-0.6-9.6-1.8c-2.8-1.2-5.1-2.9-7-5.1s-3.3-4.7-4.3-7.6c-0.9-2.9-1.4-6-1.4-9.4
		C342.1,98.4,342.6,95.3,343.6,92.4z M351.2,109.2c0.7,2.2,1.8,4,3.1,5.4c1.3,1.4,2.8,2.6,4.6,3.3c1.7,0.8,3.6,1.2,5.5,1.2
		s3.8-0.4,5.5-1.2c1.7-0.8,3.3-1.9,4.6-3.3c1.3-1.4,2.3-3.2,3.1-5.4c0.7-2.2,1.1-4.6,1.1-7.4s-0.4-5.2-1.1-7.4
		c-0.7-2.2-1.8-4-3.1-5.5c-1.3-1.5-2.8-2.6-4.6-3.4c-1.7-0.8-3.6-1.2-5.5-1.2c-2,0-3.8,0.4-5.5,1.2c-1.7,0.8-3.3,1.9-4.6,3.4
		c-1.3,1.5-2.3,3.3-3.1,5.5c-0.7,2.2-1.1,4.6-1.1,7.4S350.5,107,351.2,109.2z"/>
	<path class="st3" d="M424.3,124.7v-7.3h-0.2c-1.6,2.8-3.6,4.9-6.1,6.3c-2.5,1.3-5.4,2-8.8,2c-3,0-5.5-0.4-7.5-1.2
		c-2-0.8-3.6-1.9-4.9-3.4c-1.2-1.5-2.1-3.2-2.6-5.3c-0.5-2-0.8-4.3-0.8-6.8V78.8h7.5v31c0,2.8,0.8,5.1,2.5,6.7
		c1.7,1.7,3.9,2.5,6.8,2.5c2.3,0,4.3-0.4,6-1.1s3.1-1.7,4.2-3s2-2.8,2.5-4.6c0.6-1.7,0.8-3.6,0.8-5.7V78.8h7.5v45.8L424.3,124.7
		L424.3,124.7z"/>
	<path class="st3" d="M474.1,124.7v-6.2h-0.2c-1.2,2.5-3.2,4.4-5.9,5.5c-2.7,1.1-5.6,1.7-8.8,1.7c-3.5,0-6.6-0.7-9.3-2
		c-2.6-1.3-4.8-3-6.6-5.2c-1.7-2.2-3.1-4.7-3.9-7.6c-0.9-2.9-1.3-6-1.3-9.2s0.4-6.3,1.3-9.2c0.9-2.9,2.2-5.4,3.9-7.6
		c1.7-2.2,3.9-3.9,6.6-5.1c2.6-1.3,5.7-1.9,9.2-1.9c1.2,0,2.5,0.1,3.8,0.4c1.4,0.2,2.7,0.6,4.1,1.2s2.6,1.3,3.9,2.2
		c1.2,0.9,2.2,2.1,3.1,3.4h0.2V61.4h7.5v63.3H474.1z M447,108.4c0.6,2,1.4,3.9,2.6,5.5s2.6,2.9,4.4,3.8s3.9,1.4,6.3,1.4
		c2.5,0,4.7-0.5,6.5-1.5s3.2-2.3,4.3-3.9c1.1-1.6,1.9-3.5,2.4-5.5c0.5-2.1,0.8-4.2,0.8-6.3c0-2.2-0.3-4.4-0.8-6.5s-1.4-3.9-2.5-5.5
		c-1.2-1.6-2.6-2.9-4.5-3.9c-1.8-1-4.1-1.5-6.6-1.5s-4.7,0.5-6.5,1.5s-3.2,2.3-4.3,4c-1.1,1.7-1.8,3.5-2.3,5.7
		c-0.5,2.1-0.7,4.3-0.7,6.6C446.1,104.3,446.4,106.4,447,108.4z"/>
	<g>
		<g>
			<path class="st3" d="M495.4,64.1c0.7,0,1.3,0.2,1.7,0.5c0.4,0.3,0.6,0.8,0.6,1.4c0,0.5-0.1,0.8-0.3,1.2c-0.2,0.3-0.5,0.6-1,0.7
				l0,0c0.2,0,0.4,0.1,0.5,0.2s0.2,0.2,0.3,0.3c0.1,0.1,0.1,0.3,0.2,0.5c0,0.2,0.1,0.3,0.1,0.5s0,0.4,0,0.6s0,0.4,0.1,0.6
				c0,0.2,0.1,0.4,0.1,0.5c0.1,0.2,0.1,0.3,0.2,0.4h-1.1c-0.1-0.1-0.1-0.2-0.1-0.3c0-0.1,0-0.3,0-0.4c0-0.2,0-0.3,0-0.5
				s0-0.4-0.1-0.6c0-0.2-0.1-0.4-0.1-0.5c0-0.2-0.1-0.3-0.2-0.4s-0.2-0.2-0.4-0.3c-0.1-0.1-0.3-0.1-0.6-0.1h-2.4v3.2h-1v-7.4
				L495.4,64.1L495.4,64.1z M495.6,67.5c0.2,0,0.4-0.1,0.5-0.2c0.2-0.1,0.3-0.2,0.4-0.4c0.1-0.2,0.1-0.4,0.1-0.7
				c0-0.4-0.1-0.7-0.3-0.9c-0.2-0.2-0.5-0.4-1-0.4h-2.5v2.6h2.1C495.2,67.5,495.4,67.5,495.6,67.5z"/>
		</g>
		<path class="st3" d="M494.5,75c-3.9,0-7.1-3.2-7.1-7.1s3.2-7.1,7.1-7.1s7.1,3.2,7.1,7.1S498.4,75,494.5,75z M494.5,61.7
			c-3.4,0-6.2,2.8-6.2,6.2s2.8,6.2,6.2,6.2c3.4,0,6.2-2.8,6.2-6.2S497.9,61.7,494.5,61.7z"/>
	</g>
</g>
<g>
	<path class="st3" d="M154.2,146.5l8.1,21.8h-5l-1.6-4.8h-8.1l-1.7,4.8h-4.8l8.2-21.8H154.2z M154.5,159.8l-2.7-8h-0.1l-2.8,8H154.5
		z"/>
	<path class="st3" d="M180.6,146.5v9l8.5-9h6l-8.5,8.6l9.3,13.2h-6l-6.6-9.8l-2.7,2.8v7h-4.8v-21.8H180.6z"/>
	<path class="st3" d="M204.1,146.5v21.8h-4.8v-21.8H204.1z"/>
	<path class="st3" d="M214.6,146.5l9.1,14.6h0.1v-14.6h4.5v21.8h-4.8l-9.1-14.6h-0.1v14.6h-4.5v-21.8H214.6z"/>
	<path class="st3" d="M244.9,146.5l8.1,21.8h-5l-1.6-4.8h-8.1l-1.7,4.8h-4.8l8.2-21.8H244.9z M245.1,159.8l-2.7-8h-0.1l-2.8,8H245.1
		z"/>
	<path class="st3" d="M254.7,146.5h5.6l4.3,7l4.4-7h5.2l-7,10.4l7.6,11.4h-5.7l-4.8-7.5l-4.9,7.5h-5.4l7.6-11.4L254.7,146.5z"/>
	<path class="st3" d="M283.1,146.5v21.8h-4.8v-21.8H283.1z"/>
	<path class="st3" d="M292.5,162.9c0.3,0.5,0.6,0.9,1.1,1.2c0.4,0.3,1,0.5,1.5,0.7c0.6,0.2,1.2,0.2,1.8,0.2c0.4,0,0.9,0,1.4-0.1
		c0.5-0.1,0.9-0.2,1.4-0.4c0.4-0.2,0.8-0.5,1.1-0.8c0.3-0.4,0.4-0.8,0.4-1.4c0-0.6-0.2-1.1-0.6-1.4c-0.4-0.4-0.9-0.7-1.5-0.9
		c-0.6-0.2-1.3-0.5-2.1-0.6c-0.8-0.2-1.6-0.4-2.3-0.6c-0.8-0.2-1.6-0.5-2.4-0.7c-0.8-0.3-1.5-0.7-2.1-1.1c-0.6-0.5-1.1-1.1-1.5-1.8
		c-0.4-0.7-0.6-1.6-0.6-2.5c0-1.1,0.2-2.1,0.7-2.9c0.5-0.8,1.1-1.5,1.9-2.1c0.8-0.5,1.6-1,2.6-1.2s2-0.4,2.9-0.4
		c1.1,0,2.2,0.1,3.3,0.4c1,0.3,2,0.7,2.8,1.2c0.8,0.6,1.5,1.3,1.9,2.2c0.5,0.9,0.7,2,0.7,3.2h-4.6c0-0.7-0.2-1.2-0.4-1.6
		c-0.2-0.4-0.5-0.8-0.9-1c-0.4-0.2-0.8-0.4-1.3-0.5c-0.5-0.1-1-0.2-1.6-0.2c-0.4,0-0.8,0-1.2,0.1c-0.4,0.1-0.7,0.2-1.1,0.4
		c-0.3,0.2-0.6,0.5-0.8,0.8c-0.2,0.3-0.3,0.7-0.3,1.2c0,0.4,0.1,0.8,0.2,1c0.2,0.3,0.5,0.5,1,0.7c0.5,0.2,1.1,0.4,2,0.7
		c0.8,0.2,1.9,0.5,3.3,0.9c0.4,0.1,1,0.2,1.7,0.4c0.7,0.2,1.4,0.6,2.2,1s1.3,1.1,1.8,1.9c0.5,0.8,0.8,1.8,0.8,3c0,1-0.2,1.9-0.6,2.8
		c-0.4,0.9-1,1.6-1.7,2.2c-0.8,0.6-1.7,1.1-2.8,1.4c-1.1,0.3-2.4,0.5-3.9,0.5c-1.2,0-2.4-0.1-3.5-0.4c-1.1-0.3-2.1-0.8-3-1.4
		c-0.9-0.6-1.6-1.4-2.1-2.4c-0.5-1-0.8-2.1-0.7-3.5h4.6C292.1,161.8,292.2,162.4,292.5,162.9z"/>
	<path class="st3" d="M334.1,152.3c-0.3-0.5-0.6-0.9-1.1-1.2c-0.4-0.3-0.9-0.6-1.4-0.8c-0.5-0.2-1.1-0.3-1.7-0.3
		c-1.1,0-2,0.2-2.7,0.6c-0.8,0.4-1.4,1-1.8,1.7s-0.8,1.5-1,2.4c-0.2,0.9-0.3,1.8-0.3,2.8c0,0.9,0.1,1.8,0.3,2.7
		c0.2,0.9,0.6,1.6,1,2.3c0.5,0.7,1.1,1.2,1.8,1.7c0.8,0.4,1.7,0.6,2.7,0.6c1.5,0,2.6-0.4,3.4-1.3c0.8-0.9,1.3-2.1,1.5-3.5h4.6
		c-0.1,1.4-0.4,2.6-0.9,3.7c-0.5,1.1-1.2,2-2,2.8c-0.8,0.8-1.8,1.4-2.9,1.8c-1.1,0.4-2.3,0.6-3.7,0.6c-1.7,0-3.2-0.3-4.5-0.9
		c-1.3-0.6-2.5-1.4-3.4-2.4c-0.9-1-1.6-2.2-2.1-3.6c-0.5-1.4-0.7-2.9-0.7-4.4c0-1.6,0.2-3.1,0.7-4.5c0.5-1.4,1.2-2.6,2.1-3.6
		c0.9-1,2-1.8,3.4-2.4c1.3-0.6,2.8-0.9,4.5-0.9c1.2,0,2.3,0.2,3.4,0.5c1.1,0.3,2,0.8,2.9,1.5c0.8,0.7,1.5,1.5,2.1,2.5
		c0.5,1,0.9,2.1,1,3.4h-4.6C334.6,153.2,334.4,152.7,334.1,152.3z"/>
	<path class="st3" d="M344.1,152.9c0.5-1.4,1.2-2.6,2.1-3.6c0.9-1,2-1.8,3.4-2.4c1.3-0.6,2.8-0.9,4.5-0.9c1.7,0,3.2,0.3,4.5,0.9
		c1.3,0.6,2.4,1.4,3.4,2.4c0.9,1,1.6,2.3,2.1,3.6c0.5,1.4,0.7,2.9,0.7,4.5c0,1.6-0.2,3.1-0.7,4.4c-0.5,1.4-1.2,2.6-2.1,3.6
		c-0.9,1-2,1.8-3.4,2.4c-1.3,0.6-2.8,0.9-4.5,0.9c-1.7,0-3.2-0.3-4.5-0.9c-1.3-0.6-2.5-1.4-3.4-2.4c-0.9-1-1.6-2.2-2.1-3.6
		c-0.5-1.4-0.7-2.9-0.7-4.4C343.3,155.8,343.6,154.3,344.1,152.9z M348.4,160.1c0.2,0.9,0.6,1.6,1,2.3c0.5,0.7,1.1,1.2,1.8,1.7
		c0.8,0.4,1.7,0.6,2.7,0.6s2-0.2,2.7-0.6c0.8-0.4,1.4-1,1.8-1.7c0.5-0.7,0.8-1.5,1-2.3c0.2-0.9,0.3-1.8,0.3-2.7c0-1-0.1-1.9-0.3-2.8
		c-0.2-0.9-0.6-1.7-1-2.4s-1.1-1.3-1.8-1.7c-0.8-0.4-1.7-0.6-2.7-0.6s-2,0.2-2.7,0.6c-0.8,0.4-1.4,1-1.8,1.7s-0.8,1.5-1,2.4
		c-0.2,0.9-0.3,1.8-0.3,2.8C348.1,158.4,348.2,159.3,348.4,160.1z"/>
	<path class="st3" d="M376.3,146.5l5.1,15h0.1l4.8-15h6.7v21.8h-4.5v-15.4h-0.1l-5.3,15.4h-3.7l-5.3-15.3H374v15.3h-4.5v-21.8H376.3
		z"/>
	<path class="st3" d="M408.5,146.5c1.4,0,2.5,0.2,3.5,0.6c1,0.4,1.7,0.9,2.3,1.6c0.6,0.7,1,1.4,1.3,2.2c0.3,0.8,0.4,1.7,0.4,2.6
		c0,0.9-0.1,1.7-0.4,2.6c-0.3,0.8-0.7,1.6-1.3,2.2c-0.6,0.7-1.4,1.2-2.3,1.6c-1,0.4-2.1,0.6-3.5,0.6h-5v7.8h-4.8v-21.8H408.5z
		 M407.2,156.7c0.5,0,1.1,0,1.6-0.1c0.5-0.1,1-0.2,1.3-0.5c0.4-0.2,0.7-0.6,0.9-1c0.2-0.4,0.4-1,0.4-1.7c0-0.7-0.1-1.2-0.4-1.7
		c-0.2-0.4-0.5-0.8-0.9-1c-0.4-0.2-0.8-0.4-1.3-0.5c-0.5-0.1-1-0.1-1.6-0.1h-3.7v6.5H407.2z"/>
	<path class="st3" d="M429.2,146.5l8.1,21.8h-5l-1.6-4.8h-8.1l-1.7,4.8H416l8.2-21.8H429.2z M429.5,159.8l-2.7-8h-0.1l-2.8,8H429.5z
		"/>
	<path class="st3" d="M445.5,146.5l9.1,14.6h0.1v-14.6h4.5v21.8h-4.8l-9.1-14.6h-0.1v14.6h-4.5v-21.8H445.5z"/>
	<path class="st3" d="M462.5,146.5h5.4l5.1,8.6l5.1-8.6h5.3l-8.1,13.4v8.4h-4.8v-8.5L462.5,146.5z"/>
</g>
</svg>
