<svg width="89" height="40" viewBox="0 0 89 40" fill="none" xmlns="http://www.w3.org/2000/svg">
<path fill-rule="evenodd" clip-rule="evenodd" d="M6.28601 24.664L25.256 3.93298C19.5313 -1.30544 10.6439 -0.911228 5.40551 4.81348C0.167093 10.5382 0.561306 19.4256 6.28601 24.664Z" fill="#0F1C70"/>
<path fill-rule="evenodd" clip-rule="evenodd" d="M19.347 15.436L0.376953 36.167C6.10166 41.4055 14.989 41.0112 20.2275 35.2865C25.4659 29.5618 25.0717 20.6745 19.347 15.436Z" fill="#0F1C70"/>
<path fill-rule="evenodd" clip-rule="evenodd" d="M37.9679 15.816C37.7644 15.6217 37.4933 15.5141 37.2119 15.516C37.0013 15.5061 36.795 15.5777 36.6359 15.716C36.4863 15.8618 36.4074 16.0655 36.4199 16.274C36.4197 16.574 36.5595 16.8569 36.7979 17.039C37.0884 17.2735 37.4056 17.4729 37.7429 17.633C38.1209 17.819 38.5319 18.017 38.9759 18.227C39.4149 18.4339 39.8286 18.6906 40.2089 18.992C40.5901 19.2962 40.9107 19.6693 41.1539 20.092C41.4059 20.524 41.5319 21.0574 41.5319 21.692C41.5407 22.2726 41.4389 22.8495 41.2319 23.392C41.0451 23.8735 40.753 24.3071 40.3769 24.661C39.9877 25.019 39.5278 25.2915 39.0269 25.461C38.453 25.6544 37.8504 25.7488 37.2449 25.74C36.6571 25.748 36.0724 25.6536 35.5169 25.461C35.024 25.2883 34.5651 25.0308 34.1609 24.7C33.7784 24.3849 33.4553 24.0039 33.2069 23.575C32.9619 23.1516 32.7829 22.6934 32.6759 22.216L35.1599 20.65C35.242 20.9564 35.3442 21.2571 35.4659 21.55C35.5763 21.8217 35.7248 22.0762 35.9069 22.306C36.0743 22.5164 36.2825 22.6909 36.5189 22.819C36.7599 22.9468 37.0292 23.0118 37.3019 23.008C37.5775 23.0189 37.8491 22.94 38.0759 22.783C38.2799 22.633 38.3819 22.378 38.3819 22.018C38.3895 21.6876 38.2551 21.3698 38.0129 21.145C37.7345 20.8882 37.4227 20.6702 37.0859 20.497C36.7139 20.297 36.3139 20.093 35.8859 19.885C35.4588 19.6752 35.0564 19.4186 34.6859 19.12C34.3089 18.8102 33.9961 18.4297 33.7649 18C33.5216 17.5574 33.3999 17.0004 33.3999 16.329C33.3971 15.8633 33.4858 15.4016 33.6609 14.97C33.8269 14.5533 34.0787 14.1762 34.3999 13.863C34.7375 13.5424 35.1351 13.2916 35.5699 13.125C36.0583 12.9392 36.5774 12.8476 37.0999 12.855C38.0599 12.855 38.8429 13.041 39.4489 13.413C40.0549 13.785 40.5619 14.385 40.9699 15.213L38.5999 16.779C38.3946 16.3344 38.1839 16.0134 37.9679 15.816Z" fill="#0F1C70"/>
<path fill-rule="evenodd" clip-rule="evenodd" d="M44.2139 17.1011C43.9089 17.3306 43.6466 17.6119 43.4389 17.9321C43.2345 18.2448 43.086 18.5906 42.9999 18.9541L45.2999 19.4961C45.4093 19.1468 45.5826 18.8968 45.8199 18.7461C46.0689 18.5921 46.3572 18.5136 46.6499 18.5201C47.0753 18.5201 47.4066 18.6134 47.6439 18.8001C47.8813 18.9868 47.9999 19.2848 47.9999 19.6941V20.0011H46.5389C45.2503 20.0011 44.2836 20.2721 43.6389 20.8141C42.9943 21.3561 42.6719 22.0788 42.6719 22.9821C42.663 23.3945 42.7439 23.804 42.9089 24.1821C43.0567 24.5113 43.2748 24.8042 43.5479 25.0401C43.8216 25.2725 44.1373 25.4504 44.4779 25.5641C44.8364 25.6856 45.2125 25.7468 45.5909 25.7451C46.1088 25.7596 46.6242 25.6673 47.1049 25.4741C47.5326 25.2828 47.9081 24.9916 48.1999 24.6251L48.3999 25.6001H50.6999V20.1631C50.7142 19.5719 50.6183 18.9832 50.4169 18.4271C50.2487 17.9744 49.9744 17.5688 49.6169 17.2441C49.2502 16.9264 48.8169 16.695 48.3489 16.5671C47.7953 16.4151 47.223 16.3421 46.6489 16.3501C46.1882 16.3448 45.7296 16.4123 45.2899 16.5501C44.9029 16.6722 44.5392 16.8585 44.2139 17.1011ZM46.4519 23.5301C46.2111 23.5396 45.9729 23.4769 45.7679 23.3501C45.5974 23.2373 45.496 23.0455 45.4989 22.8411C45.4925 22.6893 45.5319 22.5392 45.6119 22.4101C45.7893 22.1368 46.1113 22.0001 46.5779 22.0001H47.9999V22.1081C48.007 22.4868 47.8572 22.8516 47.5859 23.1161C47.3099 23.3921 46.9319 23.5301 46.4519 23.5301Z" fill="#0F1C70"/>
<path fill-rule="evenodd" clip-rule="evenodd" d="M60.84 24.5C61.2105 24.069 61.4904 23.5677 61.663 23.026L61.669 23.027C62.0593 21.7587 62.0593 20.4023 61.669 19.134C61.4961 18.5935 61.2162 18.0932 60.846 17.663C60.4934 17.2632 60.0556 16.9474 59.565 16.739C59.038 16.5184 58.4712 16.4084 57.9 16.416C57.4492 16.4027 57.001 16.4884 56.587 16.667C56.2564 16.8143 55.9557 17.0211 55.7 17.277V12.9H52.7V25.6H55.7V24.827C55.942 25.122 56.2528 25.3531 56.605 25.5C56.9951 25.6669 57.4156 25.751 57.84 25.747C58.4225 25.7543 59.0006 25.6445 59.54 25.424C60.0381 25.2192 60.4827 24.9031 60.84 24.5ZM57.227 18.9027C57.6873 18.9027 58.1283 19.0877 58.451 19.416L58.452 19.415C58.7733 19.757 58.934 20.306 58.934 21.062C58.934 21.818 58.772 22.367 58.448 22.709C58.1253 23.0374 57.6843 23.2223 57.224 23.2223C56.7636 23.2223 56.3226 23.0374 56 22.709C55.678 22.3677 55.517 21.819 55.517 21.063C55.517 20.307 55.679 19.758 56.003 19.416C56.3256 19.0877 56.7666 18.9027 57.227 18.9027Z" fill="#0F1C70"/>
<path fill-rule="evenodd" clip-rule="evenodd" d="M67.8799 23.3861C67.4675 23.4004 67.0631 23.2698 66.7369 23.0171C66.4191 22.7531 66.1899 22.3982 66.0799 22.0001H72.1999V20.9201C72.195 20.4107 72.1223 19.9043 71.9839 19.4141C71.8392 18.8848 71.5915 18.3894 71.2549 17.9561C70.8878 17.4908 70.4201 17.1148 69.8869 16.8561C69.3169 16.5681 68.6059 16.4241 67.7539 16.4241C66.9359 16.4241 66.2359 16.5681 65.6539 16.8561C65.1054 17.1178 64.6202 17.4955 64.2319 17.9631C63.8699 18.4061 63.5981 18.9156 63.4319 19.4631C63.0958 20.5292 63.0958 21.6729 63.4319 22.7391C63.5981 23.2865 63.8699 23.7961 64.2319 24.2391C64.6202 24.7066 65.1054 25.0843 65.6539 25.3461C66.2379 25.6341 66.9379 25.7781 67.7539 25.7781C68.8579 25.7781 69.7549 25.5447 70.4449 25.0781C71.1509 24.591 71.7084 23.9182 72.0559 23.1341L69.7159 22.3061C69.4759 22.7141 69.2119 22.9961 68.9239 23.1521C68.6009 23.3162 68.242 23.3966 67.8799 23.3861ZM66.1549 19.9001C66.2869 19.4201 66.4999 19.0691 66.7939 18.8471C67.081 18.6294 67.4326 18.5139 67.7929 18.5191C68.2969 18.5157 68.6869 18.6491 68.9629 18.9191C69.2342 19.1795 69.406 19.5265 69.4489 19.9001H66.1549Z" fill="#0F1C70"/>
<path fill-rule="evenodd" clip-rule="evenodd" d="M74.0999 16.5H77.0999V17.493C77.3675 17.1246 77.7315 16.8371 78.1519 16.662C78.6273 16.4536 79.1418 16.3489 79.6609 16.355C79.8856 16.3527 80.1098 16.3769 80.3289 16.427C80.5142 16.4699 80.6951 16.5305 80.8689 16.608L80.2289 19.28C79.9413 19.1094 79.6121 19.0219 79.2779 19.027C79.0053 19.028 78.7365 19.0899 78.4909 19.208C78.2167 19.341 77.9771 19.5358 77.7909 19.777C77.5602 20.085 77.3905 20.4343 77.2909 20.806C77.1526 21.3148 77.0883 21.8409 77.0999 22.368V25.6H74.0999V16.5Z" fill="#0F1C70"/>
<path fill-rule="evenodd" clip-rule="evenodd" d="M82.2 16.5H85.2V17.493C85.4676 17.1246 85.8316 16.8371 86.252 16.662C86.7274 16.4536 87.2419 16.3489 87.761 16.355C87.9857 16.3527 88.2099 16.3769 88.429 16.427C88.6143 16.4699 88.7952 16.5305 88.969 16.608L88.329 19.28C88.0414 19.1094 87.7122 19.0219 87.378 19.027C87.1054 19.028 86.8365 19.0898 86.591 19.208C86.3167 19.341 86.0771 19.5357 85.891 19.777C85.6603 20.085 85.4906 20.4343 85.391 20.806C85.2527 21.3148 85.1884 21.8409 85.2 22.368V25.6H82.2V16.5Z" fill="#0F1C70"/>
</svg>
