<?xml version="1.0" encoding="UTF-8"?>
<svg width="620px" height="158px" viewBox="0 0 620 158" version="1.1" xmlns="http://www.w3.org/2000/svg" xmlns:xlink="http://www.w3.org/1999/xlink">
    <!-- Generator: Sketch 46.2 (44496) - http://www.bohemiancoding.com/sketch -->
    <title>logos / sparrho-white@2x</title>
    <desc>Created with Sketch.</desc>
    <defs></defs>
    <g id="Assets" stroke="none" stroke-width="1" fill="none" fill-rule="evenodd">
        <g id="logos-/-sparrho-white" fill-rule="nonzero" fill="#FFFFFF">
            <path d="M338.154833,84.0687006 C333.148604,84.0687006 329.090254,80.0103503 329.090254,75.0041215 C329.090254,69.9978928 333.148604,65.9395425 338.154833,65.9395425 C343.161062,65.9395425 347.219412,69.9978928 347.219412,75.0041215 C347.219412,80.0103503 343.161062,84.0687006 338.154833,84.0687006 Z M45.1542519,124.374457 C18.4664448,124.374457 0,106.919872 0,84.0687006 L22.682528,84.0687006 C24.7905697,99.2466004 37.3544979,102.74595 45.0277694,102.74595 C50.9724468,102.74595 62.8196409,100.637908 62.8196409,89.2966439 C62.8196409,79.0094007 52.8696843,74.8354782 42.9197278,70.9988424 C26.5191638,64.548235 3.33070579,56.7063201 3.33070579,33.4757012 C3.33070579,12.9012148 21.2912206,0.337286662 43.0883711,0.337286662 C68.3848708,0.337286662 82.5087498,17.2437806 82.5087498,32.7589671 L60.1635084,32.7589671 C58.9408442,25.971073 51.436216,21.5863464 42.7089236,21.5863464 C34.3189179,21.5863464 27.3623805,25.7602688 27.3623805,33.4335404 C27.3623805,40.9381686 34.1502746,43.8894269 46.0396294,49.2860135 C58.7722009,55.0620476 85.9659381,61.8499417 85.9659381,89.4231264 C85.9659381,112.316459 67.33085,124.374457 45.1542519,124.374457 Z M184.181983,79.8947781 C184.181983,106.245299 165.673377,124.374457 143.53894,124.374457 C134.474361,124.374457 126.632446,121.254555 121.025055,114.972591 L121.025055,158.398249 L99.2279049,158.398249 L99.2279049,36.2583162 L116.303042,36.2583162 L118.74837,44.6483219 L121.362342,44.6483219 C126.758929,38.7036445 134.094914,35.4150995 143.496779,35.4150995 C165.715538,35.4150995 184.181983,53.5442576 184.181983,79.8947781 Z M161.541616,79.8947781 C161.541616,64.548235 150.917086,56.8749634 140.250395,56.8749634 C128.909131,56.8749634 121.067216,65.4336125 121.067216,79.8947781 C121.067216,94.3559438 128.909131,102.914593 140.250395,102.914593 C150.874925,102.914593 161.541616,95.2413213 161.541616,79.8947781 Z M279.003184,106.751229 L279.003184,123.489079 L273.775241,123.489079 C263.656641,123.489079 256.4893,119.821087 253.538041,112.316459 C248.310098,119.4838 239.582806,124.332296 225.964857,124.332296 C206.275748,124.332296 193.71182,114.213696 193.71182,98.5298662 C193.71182,71.3361291 230.855513,68.8908008 247.593364,68.0054233 C247.256077,57.8868234 241.648687,54.218831 232.752751,54.218831 C220.357466,54.218831 219.514249,61.7234592 219.514249,61.7234592 L197.717099,61.7234592 C199.27705,46.2082727 212.009621,35.3729387 233.300842,35.3729387 C254.043971,35.3729387 268.715941,45.6601819 268.715941,70.9566816 L268.715941,94.1451396 C268.715941,104.3059 272.383934,106.751229 279.003184,106.751229 Z M247.256077,86.8513156 L247.256077,85.1227214 C231.403604,86.8513156 215.677614,88.7907139 215.677614,97.8552929 C215.719774,111.093794 245.86477,110.039774 247.256077,86.8513156 Z M349.833383,35.4150995 L349.833383,57.7603409 C348.104789,57.4230543 345.11137,57.0436068 342.160112,57.0436068 C329.93347,57.0436068 317.200899,63.3255709 317.200899,79.3888481 L317.200899,123.53124 L294.012441,123.53124 L294.012441,36.2583162 L311.804312,36.2583162 L314.966375,45.8709861 L317.74899,45.8709861 C321.585625,42.0343503 330.144275,35.4150995 344.436797,35.4150995 L349.833383,35.4150995 Z M414.887548,35.4150995 L414.887548,35.3729387 L420.284135,35.3729387 L420.284135,57.7181801 C418.555541,57.3387326 415.562122,57.0014459 412.610863,57.0014459 C400.384222,57.0014459 387.65165,63.28341 387.65165,79.3466873 L387.65165,123.446918 L364.463192,123.446918 L364.463192,86.9777981 C364.463192,75.9738207 383.941497,73.4863316 383.941497,73.4863316 C383.941497,73.4863316 373.738576,68.0054233 364.463192,63.6206967 L364.463192,36.2583162 L382.255064,36.2583162 L385.417126,45.8709861 L388.199741,45.8709861 C392.036377,42.0343503 400.595026,35.4150995 414.887548,35.4150995 Z M517.422694,76.3111074 L517.422694,123.404758 L494.107753,123.404758 L494.107753,81.5390506 C494.107753,73.0225624 495.499061,55.8209426 479.857392,55.8209426 C472.226281,55.8209426 457.427829,59.8262217 457.427829,82.5930714 L457.427829,123.446918 L434.155049,123.446918 L434.155049,0 L456.205165,0 L456.205165,45.5336994 L459.156423,45.5336994 C463.330345,41.1911336 471.298743,35.6259037 484.157797,35.6259037 C506.629521,35.6259037 517.422694,52.3215935 517.422694,76.3111074 Z M531.209286,80.1055823 C531.209286,52.3215935 552.753472,35.6259037 576.026251,35.6259037 C599.467674,35.6259037 620,52.4902368 620,79.7682956 C620,107.383641 598.793101,124.247974 575.351678,124.247974 C551.699451,124.247974 531.209286,107.425802 531.209286,80.1055823 Z M597.23315,79.936939 C597.23315,66.3611508 589.222592,55.7787818 576.026251,55.7787818 C562.829911,55.7787818 553.976136,66.3611508 553.976136,79.936939 C553.976136,93.4705663 562.829911,104.095096 576.026251,104.095096 C589.222592,104.095096 597.23315,93.5127271 597.23315,79.936939 Z" id="logo"></path>
        </g>
    </g>
</svg>
