<?xml version="1.0" encoding="UTF-8"?>
<svg width="135px" height="45px" viewBox="0 0 135 45" version="1.1" xmlns="http://www.w3.org/2000/svg" xmlns:xlink="http://www.w3.org/1999/xlink">
    <!-- Generator: Sketch 53.1 (72631) - https://sketchapp.com -->
    <title>spry-logo-horz</title>
    <desc>Created with Sketch.</desc>
    <defs>
        <linearGradient x1="-0.003%" y1="49.9953356%" x2="99.997%" y2="49.9953356%" id="linearGradient-1">
            <stop stop-color="#1B75BA" offset="0%"></stop>
            <stop stop-color="#47B985" offset="100%"></stop>
        </linearGradient>
    </defs>
    <g id="Page-1" stroke="none" stroke-width="1" fill="none" fill-rule="evenodd">
        <g id="Spry-Health---Home-1.1--V2" transform="translate(-50.000000, -27.000000)">
            <g id="NAV" transform="translate(50.000000, 27.000000)">
                <g id="spry-logo-horz">
                    <g id="spry-logo-Hor">
                        <path d="M22.0620805,42.7725 C20.9974832,42.7275 19.9600671,42.552 18.9362416,42.3045 C16.7209732,41.895 14.6370805,41.13 12.734396,40.0725 C11.9506711,39.6675 11.2031879,39.1995 10.5145973,38.6415 C6.77718121,35.8695 4.0364094,31.8465 2.90385906,27.198 C2.7135906,26.46 2.55503356,25.6995 2.45083893,24.912 C2.34211409,24.1065 2.31493289,23.292 2.24697987,22.482 C2.32399329,20.25 2.59580537,18.0585 3.3795302,15.9525 C3.43842282,15.7995 3.50184564,15.6465 3.56526846,15.4935 C6.4147651,7.7535 13.8986577,2.2275 22.6781879,2.2275 C33.9130872,2.2275 43.0233221,11.277 43.0233221,22.437 C43.0233221,31.545 36.9528523,39.2445 28.6127517,41.769 C26.7010067,42.3855 24.7484899,42.7815 22.7280201,42.7815 C22.5105705,42.786 22.2885906,42.7815 22.0620805,42.7725 M20.8162752,0.3015 C19.5025168,0.36 18.1208054,0.4095 16.3404362,0.8775 C12.6483221,1.854 9.4454698,3.753 6.86778523,6.57 C3.42483221,10.3275 0.81090604,14.526 0.158557047,19.7055 C0.0906040268,20.241 0.0543624161,20.754 0.0362416107,21.231 L0.0362416107,22.5045 C0.0770134228,23.589 0.208389262,24.471 0.298993289,25.1145 C0.530033557,26.739 1.57197987,32.8005 6.55520134,38.1015 C7.59261745,39.204 9.60855705,41.31 12.9110738,42.8445 C15.0221477,43.8255 16.8840604,44.208 17.7583893,44.361 C18.8818792,44.5545 19.8286913,44.6175 20.6577181,44.631 L21.6045302,44.631 C21.6951342,44.631 21.7857383,44.6265 21.8718121,44.6265 C25.5865772,44.568 28.3862416,43.803 28.9661074,43.641 C30.7827181,43.1325 33.8134228,42.2775 36.8214765,39.924 C40.3187919,37.188 41.85,33.948 42.8421141,31.8375 C43.7255034,29.97 45.315604,26.4825 45.338255,21.933 L45.338255,21.7755 C45.3337248,21.078 45.2974832,20.3535 45.2114094,19.6065 C44.9486577,17.316 44.4276846,15.534 43.988255,14.6655 C42.0176174,10.782 39.4082215,7.4025 35.8474832,4.797 C34.1486577,3.555 31.7521812,1.818 28.1370805,0.8955 C26.0848993,0.3735 24.2139262,0.252 22.7189597,0.252 C21.9850671,0.252 21.3417785,0.279 20.8162752,0.3015" id="SVGID_1_" fill="url(#linearGradient-1)" fill-rule="nonzero"></path>
                        <path d="M22.6781879,38.9205 C13.5135906,38.9205 6.0885906,31.5405 6.0885906,22.4415 C6.0885906,13.338 13.5181208,5.9625 22.6781879,5.9625 C31.838255,5.9625 39.2677852,13.3425 39.2677852,22.4415 C39.2723154,31.5405 31.8427852,38.9205 22.6781879,38.9205 M40.1692953,16.029 C38.588255,11.871 35.9924497,8.5275 32.0194631,6.3585 C30.7102349,5.643 28.5447987,4.392 25.4098993,3.9375 C22.7370805,3.5505 20.6622483,3.906 20.1095638,4.0095 C18.3291946,4.3425 16.9973154,4.9995 15.3392617,5.6385 C14.3154362,6.0345 13.2916107,6.5025 12.3719799,7.0965 C9.29144295,9.0945 7.23473154,12.015 5.44983221,15.1155 C4.19496644,17.2935 3.99110738,19.764 3.95033557,22.23 C3.95033557,22.635 3.91862416,23.04 3.95486577,23.4405 C4.27197987,26.7795 5.35469799,29.817 7.30721477,32.589 C9.55872483,35.7885 12.2677852,38.358 16.0595638,39.6405 C17.9214765,40.2705 19.7833893,40.8915 21.758557,41.067 C24.0870805,41.274 26.3385906,40.86 28.5312081,40.1265 C31.8201342,39.0285 34.5790268,37.206 36.7308725,34.434 C38.5157718,32.13 39.7706376,29.6055 40.545302,26.8335 C40.8941275,25.5825 41.2520134,24.3135 41.3697987,23.031 C41.5963087,20.6145 41.0255034,18.279 40.1692953,16.029" id="Shape" fill="#3AC389" fill-rule="nonzero"></path>
                        <path d="M22.6781879,35.091 C15.6427852,35.091 9.94379195,29.4255 9.94379195,22.4415 C9.94379195,15.453 15.6473154,9.792 22.6781879,9.792 C29.7090604,9.792 35.4125839,15.4575 35.4125839,22.4415 C35.4171141,29.43 29.7135906,35.091 22.6781879,35.091 M36.3005034,17.046 C34.0671141,11.475 29.002349,7.938 22.8276846,7.8975 C20.8661074,7.866 18.5738255,8.037 16.4083893,9.018 C14.4875839,9.8865 12.6800336,10.908 11.3300336,12.564 C9.39563758,14.94 8.19966443,17.6265 7.89614094,20.6955 C7.61073826,23.58 8.07734899,26.316 9.37298658,28.9125 C10.4511745,31.0725 12.1092282,32.751 13.8895973,34.3305 C15.2848993,35.568 16.8568792,36.4545 18.7233221,36.7785 C20.9657718,37.1655 23.2127517,37.206 25.4552013,36.864 C28.8981544,36.342 31.6661074,34.6185 33.8587248,31.9815 C35.1588926,30.42 35.865604,28.53 36.5813758,26.658 C37.0661074,25.398 37.4104027,24.102 37.4647651,22.7475 C37.5463087,20.7585 37.034396,18.8775 36.3005034,17.046" id="Shape" fill="#3AC389" fill-rule="nonzero"></path>
                        <g id="Spry" transform="translate(55.721477, 9.900000)" fill="#192547">
                            <path d="M77.9348658,0.484515 C77.5661074,0.484515 77.2489933,0.707265 77.1139933,1.025415 L70.1791611,17.058465 C70.1791611,16.997715 62.8932383,1.005165 62.8932383,1.005165 C62.753255,0.698715 62.4415772,0.484515 62.0805201,0.484515 C61.5889933,0.484515 61.1898826,0.880515 61.1898826,1.369665 C61.1898826,1.522215 61.222047,1.667115 61.290906,1.791765 L69.2704027,19.226565 C68.1201846,21.787065 67.1674832,23.941665 66.3846644,25.734465 L63.2887248,32.716665 C63.2574664,32.786865 63.2262081,32.857065 63.1949497,32.927715 C63.1908725,32.947515 63.1501007,33.028965 63.1455705,33.057315 C63.0708221,33.555915 63.4355034,34.032915 63.9379027,34.107165 C64.439849,34.181415 64.8013591,33.818265 64.9821141,33.339015 C65.003406,33.296715 65.0179027,33.265215 65.0179027,33.265215 C65.0179027,33.265215 78.7552852,1.712565 78.7561913,1.710765 L78.7670638,1.685115 C78.8046644,1.586565 78.8255034,1.480815 78.8255034,1.369665 C78.8255034,0.880515 78.4268456,0.484515 77.9348658,0.484515" id="Fill-7"></path>
                            <path d="M56.4124228,1.519875 C56.4124228,1.519875 56.3567013,1.478025 56.3236309,1.460475 C56.3177416,1.458225 56.3132114,1.455075 56.3077752,1.452825 C55.4098893,0.970875 54.7471208,0.851175 53.4831946,0.851175 C51.0269195,0.851175 48.991047,2.339325 47.7928087,4.659525 L47.7928087,1.342575 L47.7928087,1.341675 L47.7928087,1.327725 C47.7842013,0.841725 47.3850906,0.449775 46.8944698,0.449775 C46.403396,0.449775 46.0047383,0.841725 45.9961309,1.327725 L45.9961309,20.247975 C46.0618188,20.675475 46.4450738,21.008925 46.8944698,21.008925 C47.3434128,21.008925 47.7257617,20.675475 47.7928087,20.247975 L47.7928087,20.117475 L47.7928087,20.116575 L47.7928087,20.116125 L47.7928087,9.300375 C47.7928087,5.432175 50.3682282,2.517075 53.3635973,2.517075 C54.3960302,2.517075 55.0288993,2.625075 55.5856611,2.909475 C55.6314161,2.936025 55.6762651,2.960325 55.7270034,2.977875 C55.7374228,2.983725 55.9109295,3.030975 55.9915671,3.030975 C56.4482114,3.030975 56.8183289,2.663775 56.8183289,2.210175 C56.8183289,1.912725 56.6507114,1.664325 56.4124228,1.519875" id="Fill-9"></path>
                            <path d="M30.3491779,19.347615 C25.6196477,19.347615 22.3447651,15.793515 22.3447651,10.915965 C22.3447651,6.036615 25.6196477,2.482065 30.3491779,2.482065 C35.0787081,2.482065 38.3531376,6.036615 38.3531376,10.915965 C38.3531376,15.793515 35.0787081,19.347615 30.3491779,19.347615 M30.3491779,0.855765 C26.8926342,0.855765 24.1038423,2.482065 22.4657215,5.493915 L22.4657215,1.338165 C22.4566611,0.846765 22.0534732,0.449865 21.5569631,0.449865 C21.059547,0.449865 20.6563591,0.846765 20.6472987,1.338165 L20.6472987,33.260715 L20.6495638,33.286815 C20.723406,33.712515 21.1071141,34.016715 21.5569631,34.016715 C22.005906,34.016715 22.3905201,33.718365 22.4639094,33.292665 L22.4657215,33.260715 L22.4657215,16.336215 C24.1038423,19.347615 26.8926342,20.973465 30.3491779,20.973465 C36.0486242,20.973465 40.2322651,16.576065 40.2322651,10.915965 C40.2322651,5.254065 36.0486242,0.855765 30.3491779,0.855765" id="Fill-1"></path>
                            <path d="M7.81586577,9.198 C5.03658725,8.27775 3.18464094,7.66575 3.18464094,5.2731 C3.18464094,3.3111 4.78923826,2.0826 7.19749329,2.0826 C9.54413758,2.0826 10.9018389,3.12615 11.8282651,4.7205 C11.9809329,4.96215 12.2690537,5.11695 12.5780134,5.11695 C13.0541376,5.11695 13.4410168,4.73265 13.4410168,4.25925 C13.4410168,4.14 13.4156477,4.02705 13.3717047,3.92355 L13.3717047,3.9231 C12.2608993,1.8387 10.3468893,0.4887 7.19749329,0.4887 C3.74004362,0.4887 1.39430537,2.45295 1.39430537,5.2731 C1.39430537,8.586 3.67797987,9.68895 7.38368456,10.9152 C10.9634497,12.0816 13.063651,13.0617 13.063651,15.57585 C13.063651,17.9685 11.0259664,19.3797 8.12391946,19.3797 C4.97542953,19.3797 2.69084899,17.9073 1.64165436,15.4548 C1.49125168,15.1902 1.20448993,15.00885 0.876503356,15.00885 C0.392677852,15.00885 -9.06040268e-05,15.39855 -9.06040268e-05,15.8796 C-9.06040268e-05,15.96555 0.105010067,16.26615 0.131738255,16.3107 C1.45274497,19.09035 3.95794631,20.97405 8.12391946,20.97405 C12.0756141,20.97405 14.9155973,19.01205 14.9155973,15.516 C14.9155973,11.71215 11.7675604,10.4859 7.81586577,9.198" id="Fill-4"></path>
                        </g>
                    </g>
                </g>
            </g>
        </g>
    </g>
</svg>