<svg width="437" height="81" viewBox="0 0 437 81" fill="none" xmlns="http://www.w3.org/2000/svg">
<g clip-path="url(#clip0)">
<path d="M86.3 61.7C86.3 51.5 94.6 43.2 104.8 43.2H61.7C51.5 43.2 43.2 51.5 43.2 61.7C43.2 71.9 51.5 80.1999 61.7 80.1999H104.9C94.6 80.2999 86.3 72 86.3 61.7Z" fill="#420FBF"/>
<path d="M37.1 18.5C37.1 28.7 28.8 37 18.6 37H61.8C72 37 80.3 28.7 80.3 18.5C80.3 8.3 72 0 61.7 0H18.5C28.8 0 37.1 8.3 37.1 18.5Z" fill="#6626FF"/>
<path d="M18.5 43.2C8.3 43.2 0 51.5 0 61.7C0 72 8.3 80.3 18.5 80.3C28.7 80.3 37 72 37 61.7999C37.1 51.4999 28.8 43.2 18.5 43.2Z" fill="#6626FF"/>
<path d="M104.9 43.2C94.7 43.2 86.4 51.5 86.4 61.7C86.4 71.9 94.7 80.1999 104.9 80.1999C115.1 80.1999 123.4 71.9 123.4 61.7C123.4 51.5 115.1 43.2 104.9 43.2Z" fill="#6626FF"/>
<path d="M104.9 37.1C115.1 37.1 123.4 28.8 123.4 18.6C123.4 8.40002 115.1 0.100015 104.9 0.100015C94.6 1.53258e-05 86.3 8.30002 86.3 18.5C86.3 28.8 94.6 37.1 104.9 37.1Z" fill="#420FBF"/>
<path d="M18.5 37.1C28.7 37.1 37 28.8 37 18.6C37.1 8.3 28.8 0 18.5 0C8.3 0 0 8.3 0 18.5C0 28.8 8.3 37.1 18.5 37.1Z" fill="#420FBF"/>
<path d="M251.3 11.3C248.1 11.3 245.5 13.9 245.5 17.1C245.5 20.3 248.1 22.9 251.3 22.9C254.5 22.9 257.1 20.3 257.1 17.1C257.1 13.9 254.5 11.3 251.3 11.3ZM384.8 30.6C381.6 30.6 379 33.2 379 36.4C379 39.6 381.6 42.2 384.8 42.2C388 42.2 390.6 39.6 390.6 36.4C390.6 33.2 388 30.6 384.8 30.6ZM344.7 59.3C342.3 61.8 339.6 62.9 336.4 62.9C333.2 62.9 330.3 61.6 327.9 59.2C325.6 56.7 324.4 53.9 324.4 50.7C324.4 47.4 325.6 44.5 328 42.1C330.4 39.6 333.1 38.5 336.4 38.5C339.6 38.5 342.4 39.7 344.8 42.1C347.2 44.5 348.4 47.4 348.4 50.7C348.3 54 347.1 56.9 344.7 59.3ZM336.4 30.6C330.9 30.6 326.2 32.6 322.3 36.5C318.4 40.4 316.5 45.2 316.5 50.8C316.5 56.4 318.4 61.2 322.3 65.1C326.2 69 330.9 71 336.4 71C341.9 71 346.6 69 350.5 65.1C354.4 61.2 356.3 56.5 356.3 50.8C356.3 45.2 354.4 40.3 350.5 36.5C346.6 32.6 341.9 30.6 336.4 30.6ZM424.7 59.3C422.2 61.8 419.3 62.9 416.1 62.9C412.9 62.9 410 61.7 407.7 59.3C405.3 56.9 404.1 54.1 404.1 50.8C404.1 47.5 405.3 44.6 407.7 42.2C410.1 39.8 412.8 38.6 416.1 38.6C419.3 38.6 422.2 39.9 424.7 42.3C427.2 44.8 428.3 47.6 428.3 50.8C428.4 54 427.2 56.9 424.7 59.3ZM428.3 31.1V35.3L427 34.1C425.2 32.5 420.7 30.5 416.2 30.5C410.7 30.5 406 32.5 402.1 36.4C398.3 40.3 396.4 45.1 396.4 50.7C396.4 56.3 398.3 61.2 402.1 65C406 68.9 410.7 70.8 416.2 70.8C418.5 70.8 420.6 70.4 422.7 69.5C424.8 68.6 426.2 67.9 426.8 67.4C427.5 66.8 428 66.5 428.3 66.1V70.3H436.1V31.1H428.3ZM366.3 70.3H374.2V31.1H366.3V70.3ZM295.4 59.3C292.9 61.8 290 62.9 286.8 62.9C283.6 62.9 280.7 61.7 278.4 59.3C276 56.9 274.8 54.1 274.8 50.8C274.8 47.5 276 44.6 278.4 42.2C280.8 39.8 283.5 38.6 286.8 38.6C290 38.6 292.9 39.9 295.4 42.3C297.9 44.8 299 47.6 299 50.8C299.1 54 297.9 56.9 295.4 59.3ZM299 35.3L297.7 34.1C295.9 32.5 291.4 30.5 286.9 30.5C281.4 30.5 276.7 32.5 272.8 36.4C269 40.3 267.1 45.1 267.1 50.7C267.1 56.3 269 61.2 272.8 65C276.7 68.9 281.3 70.8 286.9 70.8C289.2 70.8 291.3 70.4 293.4 69.5C295.5 68.6 296.9 67.9 297.5 67.4C298.2 66.8 298.7 66.5 299 66.1V70.3H306.8V12.4H299V35.3ZM211.1 57.3L191.2 9.40002H181.8L207.1 70.4H215.1L240.2 9.40002H230.8L211.1 57.3ZM247.3 70.3H255.2V31.1H247.3V70.3Z" fill="black"/>
</g>
<defs>
<clipPath id="clip0">
<rect width="436.1" height="80.3" fill="white"/>
</clipPath>
</defs>
</svg>
