<svg version="1.1" id="Layer_1" xmlns="http://www.w3.org/2000/svg" x="0" y="0" width="195.679" height="50.001" viewBox="0 0 195.679 50" xml:space="preserve"><g fill-rule="evenodd" clip-rule="evenodd"><path d="M90.678 40.706v-2.979H80.325l10.353-16.19v-2.704H76.853v2.98h9.853L76.416 37.85v2.856h14.262zm16.671-6.881v-1.321c0-4.547-2.471-7.557-6.725-7.557-4.066 0-6.724 2.887-6.724 7.956 0 5.929 3.159 7.988 7.131 7.988 2.783 0 4.315-.83 5.942-2.429l-2.033-1.873c-1.126 1.106-2.064 1.598-3.848 1.598-2.627 0-4.034-1.659-4.034-4.362h10.291zm-3.16-2.18h-7.131c.031-.953.094-1.444.406-2.12.533-1.167 1.627-1.966 3.159-1.966 1.501 0 2.596.799 3.128 1.966.313.675.376 1.166.438 2.12m20.238 9.061v-9.953c0-1.751-.375-3.226-1.595-4.393-.938-.891-2.284-1.413-3.91-1.413-1.595 0-3.128.584-4.222 1.751v-1.567h-3.128v15.575h3.189v-9.492c0-2.396 1.501-3.471 3.284-3.471 1.784 0 3.19 1.044 3.19 3.471v9.492h3.192zm17.14 0V18.833h-3.19v7.865c-1.157-1.352-2.471-1.751-4.16-1.751-1.595 0-2.971.522-3.847 1.382-1.533 1.536-1.783 4.024-1.783 6.574 0 2.581.25 5.069 1.783 6.604.876.86 2.282 1.384 3.879 1.384 1.72 0 3.002-.432 4.19-1.845v1.659h3.128zm-3.19-7.803c0 2.765-.407 5.192-3.284 5.192-2.909 0-3.315-2.428-3.315-5.192 0-2.764.406-5.16 3.315-5.16 2.877 0 3.284 2.397 3.284 5.16m19.393-6.482c-1.095-1.075-2.252-1.474-3.785-1.474-1.782 0-3.408.768-4.223 1.874v-1.69h-3.128v15.575h3.191v-9.461c0-2.15 1.438-3.502 3.158-3.502 1.096 0 1.658.338 2.377 1.044l2.41-2.366zm5.786-1.29h-3.189v15.575h3.189V25.131zm.093-6.389h-3.378v3.317h3.378v-3.317zm16.923 6.389h-3.38l-3.722 10.967-3.753-10.967h-3.379l5.819 15.575h2.595l5.82-15.575zm15.107 8.694v-1.321c0-4.547-2.472-7.557-6.725-7.557-4.066 0-6.726 2.887-6.726 7.956 0 5.929 3.159 7.988 7.132 7.988 2.783 0 4.316-.83 5.942-2.429l-2.033-1.873c-1.126 1.106-2.063 1.598-3.847 1.598-2.628 0-4.035-1.659-4.035-4.362h10.292zm-3.159-2.18h-7.132c.031-.953.094-1.444.406-2.12.533-1.167 1.627-1.966 3.16-1.966 1.502 0 2.596.799 3.128 1.966.312.675.376 1.166.438 2.12" clip-path="url(#SVGID_2_)" fill="#0e1937"/><path d="M40.488 29.394c.044 6.188-1.937 13.214-7.753 20.596 28.134-.49 27.331-27.687 27.331-27.687s-11.411-.709-19.578 7.091" clip-path="url(#SVGID_2_)" fill="#42bb95"/><path d="M30.16 10.241s-19.617 18.488 0 39.76c19.616-21.272 0-39.76 0-39.76" clip-path="url(#SVGID_2_)" fill="#42bb95"/><path d="M19.83 29.646C11.648 21.589.003 22.302.003 22.302S-.812 49.677 27.592 50c-5.741-7.286-7.751-14.225-7.762-20.354m.065-2.292c.512-4.185 1.894-7.894 3.513-10.978-4.644-3.294-9.28-4.519-9.28-4.519s-2.593 4.261-3.749 10.036c3.113 1.122 6.459 2.848 9.516 5.461m16.879-10.978c4.646-3.294 9.28-4.52 9.28-4.52s2.594 4.262 3.748 10.037c-3.111 1.123-6.459 2.848-9.513 5.461-.512-4.186-1.895-7.895-3.515-10.978M30.102 5.898c1.611 0 2.918-1.32 2.918-2.949S31.713 0 30.102 0c-1.611 0-2.918 1.32-2.918 2.949s1.307 2.949 2.918 2.949" clip-path="url(#SVGID_2_)" fill="#42bb95"/></g></svg>